%TF.GenerationSoftware,KiCad,Pcbnew,9.0.2*%
%TF.CreationDate,2025-06-05T20:51:45-04:00*%
%TF.ProjectId,solder-2nd-attempt,736f6c64-6572-42d3-926e-642d61747465,rev?*%
%TF.SameCoordinates,Original*%
%TF.FileFunction,Legend,Bot*%
%TF.FilePolarity,Positive*%
%FSLAX46Y46*%
G04 Gerber Fmt 4.6, Leading zero omitted, Abs format (unit mm)*
G04 Created by KiCad (PCBNEW 9.0.2) date 2025-06-05 20:51:45*
%MOMM*%
%LPD*%
G01*
G04 APERTURE LIST*
%ADD10C,0.100000*%
%ADD11C,0.150000*%
%ADD12C,0.120000*%
G04 APERTURE END LIST*
D10*
G36*
X41942543Y-137573108D02*
G01*
X41489104Y-138026547D01*
X41471404Y-138038851D01*
X41461467Y-138033124D01*
X41453484Y-138006928D01*
X41449554Y-137990797D01*
X41408766Y-137879945D01*
X41330529Y-137747985D01*
X41217895Y-137605281D01*
X41151550Y-137534422D01*
X40909331Y-137292202D01*
X40813216Y-137208110D01*
X40719821Y-137141939D01*
X40659998Y-137110582D01*
X40601642Y-137090609D01*
X40555874Y-137083779D01*
X40511186Y-137085975D01*
X40472298Y-137096152D01*
X40434357Y-137114627D01*
X40381714Y-137156628D01*
X40346393Y-137197397D01*
X40319206Y-137240612D01*
X40288222Y-137332588D01*
X40285947Y-137435706D01*
X40314561Y-137554315D01*
X40380165Y-137692515D01*
X40490965Y-137852972D01*
X40656576Y-138037342D01*
X40710127Y-138087689D01*
X40812236Y-138172896D01*
X40943761Y-138262887D01*
X41014573Y-138300278D01*
X41085559Y-138327585D01*
X41106992Y-138333359D01*
X41118026Y-138335054D01*
X41150523Y-138343508D01*
X41155688Y-138353811D01*
X41144642Y-138371009D01*
X40691290Y-138824362D01*
X40671197Y-138837000D01*
X40658817Y-138819314D01*
X40647595Y-138772895D01*
X40617181Y-138686574D01*
X40542315Y-138563098D01*
X40413173Y-138400997D01*
X40258392Y-138237032D01*
X40256330Y-138235003D01*
X40176885Y-138143642D01*
X40067300Y-138038778D01*
X39960288Y-137954208D01*
X39896487Y-137915652D01*
X39834125Y-137889092D01*
X39785955Y-137877687D01*
X39738888Y-137875657D01*
X39698777Y-137882196D01*
X39659634Y-137897060D01*
X39589772Y-137948571D01*
X39554451Y-137989340D01*
X39527264Y-138032554D01*
X39496279Y-138124530D01*
X39494005Y-138227648D01*
X39522618Y-138346258D01*
X39588222Y-138484457D01*
X39699023Y-138644914D01*
X39864633Y-138829284D01*
X39918185Y-138879631D01*
X40020294Y-138964839D01*
X40151819Y-139054830D01*
X40222630Y-139092220D01*
X40293617Y-139119527D01*
X40315050Y-139125302D01*
X40326084Y-139126996D01*
X40358581Y-139135451D01*
X40363746Y-139145753D01*
X40352700Y-139162951D01*
X39899261Y-139616390D01*
X39879231Y-139628967D01*
X39866872Y-139611259D01*
X39855653Y-139564838D01*
X39825188Y-139478493D01*
X39750227Y-139354926D01*
X39620948Y-139192678D01*
X39466423Y-139028950D01*
X39464388Y-139026946D01*
X39410385Y-138967495D01*
X39363827Y-138904906D01*
X39292339Y-138770671D01*
X39250475Y-138627274D01*
X39238993Y-138478238D01*
X39258549Y-138327696D01*
X39280066Y-138253262D01*
X39309347Y-138180274D01*
X39346316Y-138109292D01*
X39390954Y-138040748D01*
X39484767Y-137930782D01*
X39592159Y-137844356D01*
X39710930Y-137786456D01*
X39840287Y-137756169D01*
X39978298Y-137754123D01*
X40031640Y-137760926D01*
X40036038Y-137610776D01*
X40071676Y-137461068D01*
X40101208Y-137387934D01*
X40138480Y-137316727D01*
X40183271Y-137248209D01*
X40235664Y-137182614D01*
X40276709Y-137138840D01*
X40384063Y-137052445D01*
X40503899Y-136993741D01*
X40587666Y-136970538D01*
X40532227Y-136915099D01*
X40525883Y-136903453D01*
X40529997Y-136892565D01*
X40536113Y-136887380D01*
X40985667Y-136616232D01*
X41007126Y-136607293D01*
X41016329Y-136617229D01*
X41020212Y-136636223D01*
X41023403Y-136653968D01*
X41064136Y-136764749D01*
X41142319Y-136896652D01*
X41254936Y-137039349D01*
X41321407Y-137110343D01*
X41448518Y-137237455D01*
X41574665Y-137350622D01*
X41671672Y-137423020D01*
X41781031Y-137488237D01*
X41842894Y-137515937D01*
X41904893Y-137535459D01*
X41914802Y-137537418D01*
X41950833Y-137548235D01*
X41953643Y-137557772D01*
X41942543Y-137573108D01*
G37*
G36*
X38815786Y-138852378D02*
G01*
X38866165Y-138862237D01*
X38929950Y-138890422D01*
X38959864Y-138912794D01*
X38982253Y-138938691D01*
X39005778Y-138998887D01*
X39000329Y-139065655D01*
X38986060Y-139098927D01*
X38964470Y-139129418D01*
X38956115Y-139138341D01*
X38926594Y-139162237D01*
X38891001Y-139180564D01*
X38850875Y-139192073D01*
X38805838Y-139196315D01*
X38757742Y-139192547D01*
X38705798Y-139180094D01*
X38704310Y-139179618D01*
X38650411Y-139159532D01*
X38581083Y-139133992D01*
X38507747Y-139118357D01*
X38470837Y-139118345D01*
X38434440Y-139125718D01*
X38399060Y-139142114D01*
X38365202Y-139169169D01*
X38332240Y-139207659D01*
X38308765Y-139247728D01*
X38295386Y-139286207D01*
X38289790Y-139326319D01*
X38301589Y-139412551D01*
X38348525Y-139516123D01*
X38444591Y-139649272D01*
X38566145Y-139782015D01*
X38566257Y-139725892D01*
X38571222Y-139693066D01*
X38644030Y-139693066D01*
X38646749Y-139779362D01*
X38675582Y-139867039D01*
X38709145Y-139921043D01*
X38787151Y-139995968D01*
X38879699Y-140072475D01*
X38981657Y-140135236D01*
X39034562Y-140156671D01*
X39087894Y-140168922D01*
X39132755Y-140170702D01*
X39177079Y-140163428D01*
X39215357Y-140148612D01*
X39252656Y-140125097D01*
X39280629Y-140100485D01*
X39308313Y-140067434D01*
X39328485Y-140031804D01*
X39348483Y-139951747D01*
X39340894Y-139858892D01*
X39302333Y-139754229D01*
X39230952Y-139646381D01*
X39194621Y-139606546D01*
X39142575Y-139559832D01*
X39090910Y-139523389D01*
X39039746Y-139496363D01*
X38989908Y-139478318D01*
X38894051Y-139466371D01*
X38806592Y-139484067D01*
X38733297Y-139528161D01*
X38722444Y-139538327D01*
X38691095Y-139574961D01*
X38668258Y-139612679D01*
X38644030Y-139693066D01*
X38571222Y-139693066D01*
X38575230Y-139666567D01*
X38592328Y-139609901D01*
X38618942Y-139551454D01*
X38654020Y-139494563D01*
X38699476Y-139436822D01*
X38734274Y-139399731D01*
X38787646Y-139352008D01*
X38850851Y-139306236D01*
X38920606Y-139265704D01*
X38996395Y-139231849D01*
X39067050Y-139209386D01*
X39139934Y-139195635D01*
X39204001Y-139192034D01*
X39268107Y-139197276D01*
X39324477Y-139210214D01*
X39379747Y-139231722D01*
X39429489Y-139259937D01*
X39477409Y-139296739D01*
X39499533Y-139317523D01*
X39515422Y-139333412D01*
X39581871Y-139421647D01*
X39623423Y-139528517D01*
X39633621Y-139587346D01*
X39636217Y-139648807D01*
X39630918Y-139711956D01*
X39617422Y-139776530D01*
X39595723Y-139841115D01*
X39565377Y-139905950D01*
X39526712Y-139969513D01*
X39479031Y-140032228D01*
X39429069Y-140086582D01*
X39372469Y-140137755D01*
X39316185Y-140178156D01*
X39262518Y-140207289D01*
X39209295Y-140227418D01*
X39157342Y-140238891D01*
X39105963Y-140242493D01*
X39025024Y-140232950D01*
X39126230Y-140334156D01*
X39137558Y-140350907D01*
X39138885Y-140368087D01*
X39126143Y-140389508D01*
X38779696Y-140735956D01*
X38766875Y-140746647D01*
X38756718Y-140747427D01*
X38740929Y-140704782D01*
X38740146Y-140700378D01*
X38702665Y-140592919D01*
X38616333Y-140450419D01*
X38465121Y-140267605D01*
X38310886Y-140112747D01*
X38248045Y-140047721D01*
X38195684Y-139982604D01*
X38153595Y-139918196D01*
X38120698Y-139854083D01*
X38096305Y-139789992D01*
X38080132Y-139726590D01*
X38070362Y-139598891D01*
X38090108Y-139469724D01*
X38139973Y-139338801D01*
X38221010Y-139208216D01*
X38311749Y-139103800D01*
X38388316Y-139033677D01*
X38482649Y-138962343D01*
X38558588Y-138916387D01*
X38638733Y-138879781D01*
X38701444Y-138860720D01*
X38764433Y-138851412D01*
X38815786Y-138852378D01*
G37*
G36*
X37796400Y-140032208D02*
G01*
X37871888Y-140047022D01*
X37945669Y-140069562D01*
X38018109Y-140100062D01*
X38087525Y-140137924D01*
X38154609Y-140183685D01*
X38244633Y-140262227D01*
X38299619Y-140322640D01*
X38347242Y-140386315D01*
X38387531Y-140453002D01*
X38420191Y-140521875D01*
X38462981Y-140665644D01*
X38475156Y-140814326D01*
X38456260Y-140964207D01*
X38435063Y-141038384D01*
X38406088Y-141111201D01*
X38369329Y-141182269D01*
X38324852Y-141251041D01*
X38227383Y-141365641D01*
X38173124Y-141414542D01*
X38119335Y-141452939D01*
X38066401Y-141481555D01*
X38014364Y-141501322D01*
X37911045Y-141517536D01*
X37871004Y-141515981D01*
X37918671Y-141563648D01*
X37925420Y-141575453D01*
X37924404Y-141587724D01*
X37917462Y-141598189D01*
X37561084Y-141954568D01*
X37543346Y-141966910D01*
X37533404Y-141961187D01*
X37525463Y-141935248D01*
X37521448Y-141918904D01*
X37480736Y-141808110D01*
X37402611Y-141676274D01*
X37290074Y-141533683D01*
X37223444Y-141462529D01*
X36173911Y-140412996D01*
X36167670Y-140401470D01*
X36171710Y-140390620D01*
X36177970Y-140385277D01*
X36627350Y-140113956D01*
X36648844Y-140104998D01*
X36657966Y-140115010D01*
X36661709Y-140133739D01*
X36664827Y-140151433D01*
X36705038Y-140261757D01*
X36782495Y-140392915D01*
X36894267Y-140534723D01*
X36960586Y-140605563D01*
X36990377Y-140635354D01*
X37002708Y-140559959D01*
X37023321Y-140485807D01*
X37038814Y-140447344D01*
X37173833Y-140447344D01*
X37175735Y-140551721D01*
X37208329Y-140678911D01*
X37278046Y-140831398D01*
X37388843Y-141004953D01*
X37510567Y-141155544D01*
X37625676Y-141270653D01*
X37703416Y-141337767D01*
X37785765Y-141392346D01*
X37840230Y-141417252D01*
X37895650Y-141432025D01*
X37940785Y-141435230D01*
X37986114Y-141429557D01*
X38026922Y-141416013D01*
X38067595Y-141393702D01*
X38120564Y-141349838D01*
X38171926Y-141277419D01*
X38197628Y-141189394D01*
X38197466Y-141081685D01*
X38167049Y-140950146D01*
X38100480Y-140793828D01*
X37995501Y-140620552D01*
X37864202Y-140456955D01*
X37838276Y-140430094D01*
X37730954Y-140330627D01*
X37616866Y-140249418D01*
X37558987Y-140221172D01*
X37500365Y-140203294D01*
X37453046Y-140197772D01*
X37405591Y-140201177D01*
X37363209Y-140212592D01*
X37320949Y-140232656D01*
X37249609Y-140288734D01*
X37220357Y-140323383D01*
X37198338Y-140361079D01*
X37173833Y-140447344D01*
X37038814Y-140447344D01*
X37050472Y-140418401D01*
X37085634Y-140353519D01*
X37126378Y-140295389D01*
X37174864Y-140240689D01*
X37176295Y-140239254D01*
X37292936Y-140144167D01*
X37425602Y-140075331D01*
X37569947Y-140035088D01*
X37644865Y-140026314D01*
X37720649Y-140025334D01*
X37796400Y-140032208D01*
G37*
G36*
X38244826Y-140262396D02*
G01*
X38244633Y-140262227D01*
X38244394Y-140261965D01*
X38244826Y-140262396D01*
G37*
G36*
X36539146Y-141289677D02*
G01*
X36614463Y-141304781D01*
X36688128Y-141327621D01*
X36760461Y-141358427D01*
X36829811Y-141396613D01*
X36896834Y-141442707D01*
X36984851Y-141519781D01*
X37038215Y-141578588D01*
X37084150Y-141640521D01*
X37154759Y-141773842D01*
X37196286Y-141917211D01*
X37207885Y-142067513D01*
X37188652Y-142220737D01*
X37138163Y-142371963D01*
X37101309Y-142445118D01*
X37056890Y-142515739D01*
X36950914Y-142642109D01*
X36835957Y-142736478D01*
X36710225Y-142802608D01*
X36574071Y-142842174D01*
X36429207Y-142855488D01*
X36282293Y-142842817D01*
X36156295Y-142809634D01*
X36139786Y-142790295D01*
X36142203Y-142778361D01*
X36152598Y-142769810D01*
X36170111Y-142768012D01*
X36255626Y-142776246D01*
X36377952Y-142767051D01*
X36448595Y-142748588D01*
X36523253Y-142716973D01*
X36600196Y-142669274D01*
X36677694Y-142602560D01*
X36724815Y-142550062D01*
X36762744Y-142496604D01*
X36813917Y-142386648D01*
X36835452Y-142271396D01*
X36828700Y-142149031D01*
X36792719Y-142018543D01*
X36726306Y-141881995D01*
X36701700Y-141842481D01*
X35986957Y-142557224D01*
X35970357Y-142568565D01*
X35952416Y-142571799D01*
X35936030Y-142567271D01*
X35921588Y-142555238D01*
X35866902Y-142489600D01*
X35819836Y-142421132D01*
X35780323Y-142350065D01*
X35748592Y-142277108D01*
X35724712Y-142202803D01*
X35708710Y-142127569D01*
X35700660Y-142052301D01*
X35700507Y-141977057D01*
X35708193Y-141903006D01*
X35723732Y-141829898D01*
X35746864Y-141759000D01*
X35765566Y-141717195D01*
X35902275Y-141717195D01*
X35902489Y-141814691D01*
X35933203Y-141919288D01*
X35996416Y-142025232D01*
X36046368Y-142082111D01*
X36100601Y-142130762D01*
X36147047Y-142160238D01*
X36178745Y-142170987D01*
X36208090Y-142172333D01*
X36260765Y-142151962D01*
X36319588Y-142101799D01*
X36652220Y-141769168D01*
X36638885Y-141753968D01*
X36578906Y-141688083D01*
X36511655Y-141626512D01*
X36439267Y-141571779D01*
X36371718Y-141530889D01*
X36302810Y-141499593D01*
X36244191Y-141482006D01*
X36186318Y-141473940D01*
X36137875Y-141475514D01*
X36091063Y-141485726D01*
X36050623Y-141502987D01*
X36012286Y-141528455D01*
X35988943Y-141549400D01*
X35955941Y-141587794D01*
X35930766Y-141628608D01*
X35902275Y-141717195D01*
X35765566Y-141717195D01*
X35777771Y-141689912D01*
X35816029Y-141623805D01*
X35861989Y-141560329D01*
X35921588Y-141493961D01*
X36037589Y-141399514D01*
X36169611Y-141331316D01*
X36313364Y-141291684D01*
X36388033Y-141283204D01*
X36463577Y-141282514D01*
X36539146Y-141289677D01*
G37*
G36*
X34493617Y-142279359D02*
G01*
X34497361Y-142298088D01*
X34500478Y-142315782D01*
X34540690Y-142426107D01*
X34618150Y-142557266D01*
X34729939Y-142699091D01*
X34796323Y-142769998D01*
X35796203Y-143769878D01*
X35801831Y-143780550D01*
X35796737Y-143788655D01*
X35790245Y-143791725D01*
X35623746Y-143828112D01*
X35543261Y-143852066D01*
X35469099Y-143882309D01*
X35455281Y-143964681D01*
X35431731Y-144048905D01*
X35402286Y-144122509D01*
X35363409Y-144195929D01*
X35318907Y-144262095D01*
X35264995Y-144326945D01*
X35239486Y-144353537D01*
X35175660Y-144411907D01*
X35108886Y-144462592D01*
X35039401Y-144505683D01*
X34967847Y-144540996D01*
X34894616Y-144568523D01*
X34820212Y-144588211D01*
X34745224Y-144600019D01*
X34669964Y-144603967D01*
X34595204Y-144600065D01*
X34521059Y-144588323D01*
X34448410Y-144568860D01*
X34377237Y-144541603D01*
X34308423Y-144506787D01*
X34241918Y-144464234D01*
X34133824Y-144372535D01*
X34078016Y-144311270D01*
X34029884Y-144247054D01*
X33989302Y-144180092D01*
X33956402Y-144110976D01*
X33931066Y-144039790D01*
X33913441Y-143967256D01*
X33901259Y-143818979D01*
X33920203Y-143669466D01*
X33941466Y-143595291D01*
X33958890Y-143551574D01*
X34172489Y-143551574D01*
X34196159Y-143678090D01*
X34254467Y-143823692D01*
X34352051Y-143985945D01*
X34488715Y-144155085D01*
X34537956Y-144206392D01*
X34624827Y-144286567D01*
X34719955Y-144356925D01*
X34783144Y-144391919D01*
X34847802Y-144416553D01*
X34899366Y-144427041D01*
X34951050Y-144428311D01*
X34995622Y-144421025D01*
X35039796Y-144405122D01*
X35080875Y-144381523D01*
X35121208Y-144348895D01*
X35130595Y-144339807D01*
X35187262Y-144262183D01*
X35219830Y-144166989D01*
X35227164Y-144052729D01*
X35205623Y-143920376D01*
X35152285Y-143777847D01*
X35070553Y-143643913D01*
X35046747Y-143614356D01*
X34826547Y-143394157D01*
X34739647Y-143318282D01*
X34653682Y-143256659D01*
X34590481Y-143221889D01*
X34528463Y-143198274D01*
X34478713Y-143188196D01*
X34430104Y-143187285D01*
X34388189Y-143194721D01*
X34347396Y-143210438D01*
X34273457Y-143264886D01*
X34238784Y-143304975D01*
X34211702Y-143347867D01*
X34178508Y-143442545D01*
X34172489Y-143551574D01*
X33958890Y-143551574D01*
X33970555Y-143522306D01*
X34007558Y-143450758D01*
X34052387Y-143381279D01*
X34154635Y-143260914D01*
X34214249Y-143206744D01*
X34276238Y-143160757D01*
X34407206Y-143091776D01*
X34495297Y-143062907D01*
X34009649Y-142577258D01*
X34003248Y-142565803D01*
X34006516Y-142555796D01*
X34011635Y-142551611D01*
X34463001Y-142278305D01*
X34484495Y-142269347D01*
X34493617Y-142279359D01*
G37*
G36*
X35027231Y-145173199D02*
G01*
X35010771Y-145230272D01*
X34987595Y-145282795D01*
X34958248Y-145330170D01*
X34922980Y-145372354D01*
X34918254Y-145377164D01*
X34827766Y-145446163D01*
X34710472Y-145496602D01*
X34567341Y-145524078D01*
X34403076Y-145523481D01*
X34315475Y-145511332D01*
X34226658Y-145491039D01*
X34195739Y-145482083D01*
X33004415Y-145122337D01*
X32806204Y-145069515D01*
X32642498Y-145042543D01*
X32535346Y-145045310D01*
X32509595Y-145045305D01*
X32503673Y-145035545D01*
X32509613Y-145027521D01*
X32818497Y-144718637D01*
X32833744Y-144708230D01*
X32845118Y-144708629D01*
X32850102Y-144726582D01*
X32857397Y-144796210D01*
X32897406Y-144877532D01*
X32975156Y-144963763D01*
X33027598Y-145004219D01*
X33086959Y-145039826D01*
X33105447Y-145049110D01*
X33244204Y-145104869D01*
X33693165Y-145256702D01*
X33634190Y-145090845D01*
X33438079Y-144562079D01*
X33377871Y-144447855D01*
X33338026Y-144395980D01*
X33295683Y-144356448D01*
X33265030Y-144339095D01*
X33235679Y-144334003D01*
X33230314Y-144334626D01*
X33214581Y-144332701D01*
X33218490Y-144318731D01*
X33220383Y-144316751D01*
X33655947Y-143881187D01*
X33671072Y-143870805D01*
X33678848Y-143874120D01*
X33677794Y-143887145D01*
X33669218Y-143930847D01*
X33668283Y-143979217D01*
X33690921Y-144106963D01*
X33768638Y-144358114D01*
X33972258Y-144953776D01*
X34073483Y-145244116D01*
X34124498Y-145391153D01*
X34149451Y-145398905D01*
X34164134Y-145402984D01*
X34263409Y-145432858D01*
X34352847Y-145446193D01*
X34394984Y-145442896D01*
X34435988Y-145430950D01*
X34476301Y-145408850D01*
X34516367Y-145375092D01*
X34555030Y-145316879D01*
X34584246Y-145222802D01*
X34593650Y-145179221D01*
X34619386Y-145074325D01*
X34638176Y-145030289D01*
X34662276Y-144993752D01*
X34678797Y-144975364D01*
X34742579Y-144932125D01*
X34819521Y-144915095D01*
X34900584Y-144927550D01*
X34937734Y-144944873D01*
X34970708Y-144969232D01*
X34996768Y-144998470D01*
X35016671Y-145033519D01*
X35028660Y-145071316D01*
X35033281Y-145113799D01*
X35027231Y-145173199D01*
G37*
G36*
X44318422Y-139948987D02*
G01*
X43864983Y-140402426D01*
X43847283Y-140414730D01*
X43837346Y-140409003D01*
X43829363Y-140382807D01*
X43825433Y-140366676D01*
X43784645Y-140255824D01*
X43706408Y-140123864D01*
X43593773Y-139981159D01*
X43527429Y-139910301D01*
X43285209Y-139668081D01*
X43189095Y-139583989D01*
X43095699Y-139517817D01*
X43035877Y-139486461D01*
X42977521Y-139466488D01*
X42931753Y-139459657D01*
X42887065Y-139461854D01*
X42848176Y-139472031D01*
X42810235Y-139490506D01*
X42757593Y-139532507D01*
X42722272Y-139573276D01*
X42695085Y-139616491D01*
X42664101Y-139708467D01*
X42661826Y-139811585D01*
X42690439Y-139930194D01*
X42756044Y-140068394D01*
X42866844Y-140228851D01*
X43032454Y-140413220D01*
X43086006Y-140463567D01*
X43188115Y-140548775D01*
X43319640Y-140638766D01*
X43390451Y-140676156D01*
X43461438Y-140703464D01*
X43482871Y-140709238D01*
X43493905Y-140710933D01*
X43526402Y-140719387D01*
X43531567Y-140729690D01*
X43520521Y-140746888D01*
X43067168Y-141200241D01*
X43047076Y-141212879D01*
X43034696Y-141195192D01*
X43023474Y-141148774D01*
X42993059Y-141062453D01*
X42918194Y-140938976D01*
X42789052Y-140776876D01*
X42634270Y-140612911D01*
X42632209Y-140610882D01*
X42578206Y-140551431D01*
X42531649Y-140488842D01*
X42460160Y-140354607D01*
X42418296Y-140211211D01*
X42406814Y-140062174D01*
X42426370Y-139911632D01*
X42447887Y-139837199D01*
X42477168Y-139764210D01*
X42514137Y-139693228D01*
X42558775Y-139624684D01*
X42652588Y-139514719D01*
X42759942Y-139428324D01*
X42879777Y-139369620D01*
X42963545Y-139346417D01*
X42477896Y-138860768D01*
X42471619Y-138849189D01*
X42475751Y-138838319D01*
X42481868Y-138833135D01*
X42931249Y-138561814D01*
X42952743Y-138552857D01*
X42961865Y-138562869D01*
X42965608Y-138581598D01*
X42968726Y-138599292D01*
X43009012Y-138709673D01*
X43086581Y-138840955D01*
X43198449Y-138982875D01*
X43264485Y-139053421D01*
X43824397Y-139613334D01*
X43950543Y-139726500D01*
X44047551Y-139798899D01*
X44156909Y-139864115D01*
X44218772Y-139891815D01*
X44280772Y-139911337D01*
X44290680Y-139913297D01*
X44326712Y-139924114D01*
X44329522Y-139933651D01*
X44318422Y-139948987D01*
G37*
G36*
X41993020Y-140426902D02*
G01*
X42043399Y-140436761D01*
X42107183Y-140464946D01*
X42137098Y-140487318D01*
X42159487Y-140513215D01*
X42183012Y-140573411D01*
X42177562Y-140640179D01*
X42163294Y-140673451D01*
X42141703Y-140703942D01*
X42133348Y-140712865D01*
X42103828Y-140736761D01*
X42068235Y-140755088D01*
X42028109Y-140766597D01*
X41983071Y-140770839D01*
X41934975Y-140767071D01*
X41883031Y-140754618D01*
X41881543Y-140754142D01*
X41827645Y-140734056D01*
X41758316Y-140708516D01*
X41684980Y-140692881D01*
X41648071Y-140692869D01*
X41611674Y-140700242D01*
X41576294Y-140716638D01*
X41542435Y-140743693D01*
X41509474Y-140782183D01*
X41485999Y-140822252D01*
X41472619Y-140860731D01*
X41467024Y-140900843D01*
X41478822Y-140987075D01*
X41525758Y-141090647D01*
X41621825Y-141223796D01*
X41743379Y-141356539D01*
X41743490Y-141300416D01*
X41748456Y-141267590D01*
X41821264Y-141267590D01*
X41823983Y-141353886D01*
X41852815Y-141441563D01*
X41886379Y-141495567D01*
X41964385Y-141570492D01*
X42056933Y-141646999D01*
X42158891Y-141709760D01*
X42211795Y-141731195D01*
X42265128Y-141743446D01*
X42309989Y-141745226D01*
X42354313Y-141737952D01*
X42392591Y-141723136D01*
X42429890Y-141699621D01*
X42457862Y-141675009D01*
X42485546Y-141641958D01*
X42505719Y-141606328D01*
X42525717Y-141526271D01*
X42518127Y-141433416D01*
X42479567Y-141328753D01*
X42408186Y-141220905D01*
X42371855Y-141181070D01*
X42319808Y-141134356D01*
X42268144Y-141097913D01*
X42216980Y-141070887D01*
X42167141Y-141052842D01*
X42071284Y-141040895D01*
X41983825Y-141058591D01*
X41910530Y-141102685D01*
X41899677Y-141112851D01*
X41868328Y-141149485D01*
X41845491Y-141187203D01*
X41821264Y-141267590D01*
X41748456Y-141267590D01*
X41752464Y-141241091D01*
X41769562Y-141184425D01*
X41796175Y-141125978D01*
X41831253Y-141069087D01*
X41876710Y-141011346D01*
X41911508Y-140974255D01*
X41964879Y-140926532D01*
X42028084Y-140880760D01*
X42097840Y-140840228D01*
X42173629Y-140806372D01*
X42244284Y-140783910D01*
X42317167Y-140770159D01*
X42381234Y-140766558D01*
X42445341Y-140771800D01*
X42501710Y-140784738D01*
X42556981Y-140806246D01*
X42606722Y-140834461D01*
X42654642Y-140871263D01*
X42676767Y-140892047D01*
X42692656Y-140907936D01*
X42759105Y-140996171D01*
X42800656Y-141103041D01*
X42810855Y-141161870D01*
X42813450Y-141223331D01*
X42808152Y-141286480D01*
X42794656Y-141351054D01*
X42772956Y-141415639D01*
X42742610Y-141480474D01*
X42703946Y-141544037D01*
X42656265Y-141606752D01*
X42606303Y-141661106D01*
X42549703Y-141712279D01*
X42493419Y-141752680D01*
X42439752Y-141781813D01*
X42386528Y-141801942D01*
X42334575Y-141813415D01*
X42283196Y-141817017D01*
X42202258Y-141807474D01*
X42303463Y-141908680D01*
X42314792Y-141925431D01*
X42316118Y-141942611D01*
X42303377Y-141964032D01*
X41956929Y-142310480D01*
X41944109Y-142321171D01*
X41933952Y-142321951D01*
X41918162Y-142279306D01*
X41917380Y-142274902D01*
X41879898Y-142167443D01*
X41793566Y-142024943D01*
X41642355Y-141842129D01*
X41488119Y-141687271D01*
X41425279Y-141622245D01*
X41372917Y-141557128D01*
X41330828Y-141492720D01*
X41297932Y-141428607D01*
X41273538Y-141364516D01*
X41257366Y-141301114D01*
X41247596Y-141173415D01*
X41267341Y-141044248D01*
X41317207Y-140913325D01*
X41398243Y-140782740D01*
X41488983Y-140678324D01*
X41565550Y-140608201D01*
X41659883Y-140536867D01*
X41735822Y-140490911D01*
X41815966Y-140454305D01*
X41878678Y-140435244D01*
X41941666Y-140425936D01*
X41993020Y-140426902D01*
G37*
G36*
X42367365Y-142584823D02*
G01*
X42350904Y-142641896D01*
X42327729Y-142694419D01*
X42298382Y-142741794D01*
X42263113Y-142783978D01*
X42258387Y-142788788D01*
X42167899Y-142857787D01*
X42050605Y-142908226D01*
X41907474Y-142935702D01*
X41743209Y-142935105D01*
X41655608Y-142922956D01*
X41566792Y-142902663D01*
X41535873Y-142893707D01*
X40344548Y-142533961D01*
X40146338Y-142481139D01*
X39982632Y-142454167D01*
X39875479Y-142456934D01*
X39849729Y-142456929D01*
X39843807Y-142447169D01*
X39849746Y-142439145D01*
X40158630Y-142130261D01*
X40173877Y-142119854D01*
X40185251Y-142120254D01*
X40190236Y-142138206D01*
X40197531Y-142207834D01*
X40237540Y-142289156D01*
X40315290Y-142375387D01*
X40367731Y-142415843D01*
X40427092Y-142451450D01*
X40445581Y-142460734D01*
X40584338Y-142516494D01*
X41033299Y-142668326D01*
X40974323Y-142502469D01*
X40778212Y-141973703D01*
X40718005Y-141859479D01*
X40678160Y-141807604D01*
X40635817Y-141768072D01*
X40605163Y-141750720D01*
X40575813Y-141745627D01*
X40570447Y-141746250D01*
X40554715Y-141744325D01*
X40558624Y-141730355D01*
X40560517Y-141728375D01*
X40996081Y-141292811D01*
X41011205Y-141282429D01*
X41018981Y-141285744D01*
X41017928Y-141298769D01*
X41009351Y-141342471D01*
X41008417Y-141390841D01*
X41031054Y-141518587D01*
X41108771Y-141769738D01*
X41312391Y-142365400D01*
X41413616Y-142655740D01*
X41464631Y-142802777D01*
X41489584Y-142810529D01*
X41504267Y-142814608D01*
X41603542Y-142844482D01*
X41692981Y-142857817D01*
X41735117Y-142854520D01*
X41776121Y-142842574D01*
X41816435Y-142820474D01*
X41856501Y-142786716D01*
X41895164Y-142728503D01*
X41924379Y-142634426D01*
X41933783Y-142590845D01*
X41959520Y-142485949D01*
X41978310Y-142441913D01*
X42002410Y-142405376D01*
X42018931Y-142386988D01*
X42082713Y-142343749D01*
X42159655Y-142326719D01*
X42240718Y-142339174D01*
X42277867Y-142356497D01*
X42310842Y-142380856D01*
X42336901Y-142410094D01*
X42356804Y-142445143D01*
X42368794Y-142482940D01*
X42373415Y-142525423D01*
X42367365Y-142584823D01*
G37*
G36*
X39800347Y-142619574D02*
G01*
X39850726Y-142629434D01*
X39914511Y-142657618D01*
X39944425Y-142679990D01*
X39966814Y-142705887D01*
X39990339Y-142766083D01*
X39984890Y-142832852D01*
X39970621Y-142866124D01*
X39949031Y-142896614D01*
X39940676Y-142905537D01*
X39911155Y-142929433D01*
X39875562Y-142947760D01*
X39835437Y-142959270D01*
X39790399Y-142963512D01*
X39742303Y-142959743D01*
X39690359Y-142947291D01*
X39688871Y-142946814D01*
X39634972Y-142926729D01*
X39565644Y-142901188D01*
X39492308Y-142885553D01*
X39455398Y-142885541D01*
X39419001Y-142892915D01*
X39383621Y-142909311D01*
X39349763Y-142936365D01*
X39316801Y-142974855D01*
X39293326Y-143014924D01*
X39279947Y-143053403D01*
X39274351Y-143093516D01*
X39286150Y-143179748D01*
X39333086Y-143283319D01*
X39429152Y-143416468D01*
X39550706Y-143549212D01*
X39550818Y-143493088D01*
X39555783Y-143460262D01*
X39628592Y-143460262D01*
X39631311Y-143546558D01*
X39660143Y-143634235D01*
X39693706Y-143688240D01*
X39771712Y-143763165D01*
X39864260Y-143839672D01*
X39966218Y-143902432D01*
X40019123Y-143923868D01*
X40072455Y-143936119D01*
X40117316Y-143937899D01*
X40161640Y-143930625D01*
X40199918Y-143915808D01*
X40237218Y-143892293D01*
X40265190Y-143867681D01*
X40292874Y-143834631D01*
X40313046Y-143799000D01*
X40333044Y-143718944D01*
X40325455Y-143626089D01*
X40286895Y-143521426D01*
X40215513Y-143413577D01*
X40179182Y-143373743D01*
X40127136Y-143327029D01*
X40075471Y-143290586D01*
X40024307Y-143263559D01*
X39974469Y-143245514D01*
X39878612Y-143233567D01*
X39791153Y-143251263D01*
X39717858Y-143295358D01*
X39707005Y-143305524D01*
X39675656Y-143342157D01*
X39652819Y-143379876D01*
X39628592Y-143460262D01*
X39555783Y-143460262D01*
X39559791Y-143433764D01*
X39576889Y-143377098D01*
X39603503Y-143318650D01*
X39638581Y-143261760D01*
X39684037Y-143204019D01*
X39718835Y-143166928D01*
X39772207Y-143119204D01*
X39835412Y-143073432D01*
X39905167Y-143032901D01*
X39980956Y-142999045D01*
X40051611Y-142976582D01*
X40124495Y-142962832D01*
X40188562Y-142959230D01*
X40252668Y-142964472D01*
X40309038Y-142977410D01*
X40364308Y-142998919D01*
X40414050Y-143027133D01*
X40461970Y-143063936D01*
X40484094Y-143084720D01*
X40499983Y-143100608D01*
X40566432Y-143188843D01*
X40607984Y-143295713D01*
X40618182Y-143354543D01*
X40620778Y-143416004D01*
X40615479Y-143479153D01*
X40601984Y-143543726D01*
X40580284Y-143608312D01*
X40549938Y-143673147D01*
X40511273Y-143736710D01*
X40463592Y-143799424D01*
X40413630Y-143853778D01*
X40357031Y-143904951D01*
X40300746Y-143945353D01*
X40247079Y-143974485D01*
X40193856Y-143994614D01*
X40141903Y-144006087D01*
X40090524Y-144009690D01*
X40009585Y-144000147D01*
X40110791Y-144101352D01*
X40122119Y-144118103D01*
X40123446Y-144135283D01*
X40110705Y-144156704D01*
X39764257Y-144503152D01*
X39751436Y-144513844D01*
X39741280Y-144514623D01*
X39725490Y-144471978D01*
X39724707Y-144467575D01*
X39687226Y-144360116D01*
X39600894Y-144217615D01*
X39449682Y-144034801D01*
X39295447Y-143879943D01*
X39232606Y-143814918D01*
X39180245Y-143749801D01*
X39138156Y-143685393D01*
X39105259Y-143621280D01*
X39080866Y-143557189D01*
X39064693Y-143493786D01*
X39054923Y-143366088D01*
X39074669Y-143236920D01*
X39124534Y-143105997D01*
X39205571Y-142975412D01*
X39296310Y-142870996D01*
X39372877Y-142800873D01*
X39467210Y-142729539D01*
X39543149Y-142683583D01*
X39623294Y-142646977D01*
X39686006Y-142627917D01*
X39748994Y-142618608D01*
X39800347Y-142619574D01*
G37*
G36*
X39148302Y-145119107D02*
G01*
X38694863Y-145572546D01*
X38677163Y-145584850D01*
X38667226Y-145579123D01*
X38659243Y-145552927D01*
X38655313Y-145536796D01*
X38614524Y-145425944D01*
X38536285Y-145293982D01*
X38423632Y-145151260D01*
X38357223Y-145080335D01*
X38069322Y-144792434D01*
X37979749Y-144723491D01*
X37931597Y-144700384D01*
X37883466Y-144685501D01*
X37835668Y-144678587D01*
X37789984Y-144679705D01*
X37748236Y-144688395D01*
X37710530Y-144704394D01*
X37670631Y-144734319D01*
X37631445Y-144793719D01*
X37616544Y-144868214D01*
X37624333Y-144968452D01*
X37635509Y-145028709D01*
X37649388Y-145109090D01*
X37651453Y-145152117D01*
X37645949Y-145191478D01*
X37614502Y-145259698D01*
X37594122Y-145283523D01*
X37532389Y-145324071D01*
X37496556Y-145333993D01*
X37459456Y-145335932D01*
X37424079Y-145329779D01*
X37389913Y-145315273D01*
X37360004Y-145293614D01*
X37333130Y-145263714D01*
X37310453Y-145225580D01*
X37285386Y-145138982D01*
X37284672Y-145022900D01*
X37296103Y-144961056D01*
X37315957Y-144899785D01*
X37342149Y-144845374D01*
X37376170Y-144794785D01*
X37405269Y-144762038D01*
X37458634Y-144714042D01*
X37513132Y-144675026D01*
X37626055Y-144621047D01*
X37743321Y-144597153D01*
X37863637Y-144602293D01*
X37882627Y-144605739D01*
X37737986Y-144461098D01*
X37731642Y-144449452D01*
X37735755Y-144438563D01*
X37741872Y-144433379D01*
X38191339Y-144162145D01*
X38212796Y-144153203D01*
X38221983Y-144163123D01*
X38225841Y-144182129D01*
X38228989Y-144199794D01*
X38269777Y-144310647D01*
X38348017Y-144442609D01*
X38460670Y-144585331D01*
X38527079Y-144656256D01*
X38654190Y-144783367D01*
X38780404Y-144896601D01*
X38877425Y-144969013D01*
X38986788Y-145034235D01*
X39048652Y-145061935D01*
X39110652Y-145081457D01*
X39120560Y-145083417D01*
X39156592Y-145094234D01*
X39159402Y-145103771D01*
X39148302Y-145119107D01*
G37*
G36*
X36556242Y-145863679D02*
G01*
X36606621Y-145873539D01*
X36670406Y-145901723D01*
X36700320Y-145924096D01*
X36722709Y-145949992D01*
X36746234Y-146010188D01*
X36740785Y-146076957D01*
X36726516Y-146110229D01*
X36704925Y-146140719D01*
X36696570Y-146149643D01*
X36667050Y-146173538D01*
X36631457Y-146191866D01*
X36591331Y-146203375D01*
X36546293Y-146207617D01*
X36498197Y-146203849D01*
X36446253Y-146191396D01*
X36444765Y-146190919D01*
X36390867Y-146170834D01*
X36321539Y-146145294D01*
X36248202Y-146129658D01*
X36211293Y-146129646D01*
X36174896Y-146137020D01*
X36139516Y-146153416D01*
X36105658Y-146180471D01*
X36072696Y-146218961D01*
X36049221Y-146259029D01*
X36035842Y-146297509D01*
X36030246Y-146337621D01*
X36042045Y-146423853D01*
X36088980Y-146527424D01*
X36185047Y-146660573D01*
X36306601Y-146793317D01*
X36306713Y-146737193D01*
X36311678Y-146704368D01*
X36384486Y-146704368D01*
X36387205Y-146790663D01*
X36416038Y-146878341D01*
X36449601Y-146932345D01*
X36527607Y-147007270D01*
X36620155Y-147083777D01*
X36722113Y-147146538D01*
X36775017Y-147167973D01*
X36828350Y-147180224D01*
X36873211Y-147182004D01*
X36917535Y-147174730D01*
X36955813Y-147159913D01*
X36993112Y-147136399D01*
X37021085Y-147111786D01*
X37048768Y-147078736D01*
X37068941Y-147043106D01*
X37088939Y-146963049D01*
X37081350Y-146870194D01*
X37042789Y-146765531D01*
X36971408Y-146657682D01*
X36935077Y-146617848D01*
X36883030Y-146571134D01*
X36831366Y-146534691D01*
X36780202Y-146507664D01*
X36730364Y-146489620D01*
X36634507Y-146477673D01*
X36547048Y-146495369D01*
X36473753Y-146539463D01*
X36462900Y-146549629D01*
X36431550Y-146586262D01*
X36408713Y-146623981D01*
X36384486Y-146704368D01*
X36311678Y-146704368D01*
X36315686Y-146677869D01*
X36332784Y-146621203D01*
X36359398Y-146562755D01*
X36394475Y-146505865D01*
X36439932Y-146448124D01*
X36474730Y-146411033D01*
X36528102Y-146363310D01*
X36591306Y-146317538D01*
X36661062Y-146277006D01*
X36736851Y-146243150D01*
X36807506Y-146220688D01*
X36880390Y-146206937D01*
X36944457Y-146203335D01*
X37008563Y-146208578D01*
X37064933Y-146221515D01*
X37120203Y-146243024D01*
X37169944Y-146271239D01*
X37217865Y-146308041D01*
X37239989Y-146328825D01*
X37255878Y-146344714D01*
X37322327Y-146432949D01*
X37363878Y-146539818D01*
X37374077Y-146598648D01*
X37376673Y-146660109D01*
X37371374Y-146723258D01*
X37357878Y-146787831D01*
X37336179Y-146852417D01*
X37305833Y-146917252D01*
X37267168Y-146980815D01*
X37219487Y-147043529D01*
X37169525Y-147097884D01*
X37112925Y-147149057D01*
X37056641Y-147189458D01*
X37002974Y-147218590D01*
X36949750Y-147238720D01*
X36897797Y-147250192D01*
X36846419Y-147253795D01*
X36765480Y-147244252D01*
X36866686Y-147345457D01*
X36878014Y-147362208D01*
X36879341Y-147379388D01*
X36866599Y-147400810D01*
X36520151Y-147747257D01*
X36507331Y-147757949D01*
X36497174Y-147758729D01*
X36481385Y-147716083D01*
X36480602Y-147711680D01*
X36443120Y-147604221D01*
X36356788Y-147461721D01*
X36205577Y-147278906D01*
X36051342Y-147124049D01*
X35988501Y-147059023D01*
X35936140Y-146993906D01*
X35894050Y-146929498D01*
X35861154Y-146865385D01*
X35836761Y-146801294D01*
X35820588Y-146737892D01*
X35810818Y-146610193D01*
X35830563Y-146481025D01*
X35880429Y-146350103D01*
X35961466Y-146219518D01*
X36052205Y-146115101D01*
X36128772Y-146044978D01*
X36223105Y-145973645D01*
X36299044Y-145927689D01*
X36379189Y-145891083D01*
X36441900Y-145872022D01*
X36504889Y-145862713D01*
X36556242Y-145863679D01*
G37*
G36*
X36218953Y-147606502D02*
G01*
X36258080Y-147708925D01*
X36268174Y-147822634D01*
X36247506Y-147948028D01*
X36192482Y-148084635D01*
X36098927Y-148230289D01*
X35983641Y-148361140D01*
X35861049Y-148461982D01*
X35790081Y-148505367D01*
X35715831Y-148541274D01*
X35644414Y-148566990D01*
X35573015Y-148583635D01*
X35510682Y-148589861D01*
X35450488Y-148587146D01*
X35400077Y-148576698D01*
X35352781Y-148558114D01*
X35282456Y-148507249D01*
X35228239Y-148432055D01*
X35197486Y-148338213D01*
X35189631Y-148217939D01*
X35208329Y-148057995D01*
X35262769Y-147820485D01*
X35304892Y-147644099D01*
X35329671Y-147480770D01*
X35330422Y-147406952D01*
X35320675Y-147339937D01*
X35298376Y-147280907D01*
X35261472Y-147231040D01*
X35229018Y-147204390D01*
X35193706Y-147187594D01*
X35164633Y-147183130D01*
X35135043Y-147187869D01*
X35087039Y-147218950D01*
X35041083Y-147285893D01*
X35014843Y-147377980D01*
X35013659Y-147494208D01*
X35043214Y-147624789D01*
X35081512Y-147712371D01*
X35096287Y-147750202D01*
X35102500Y-147786370D01*
X35092172Y-147852945D01*
X35053966Y-147910551D01*
X34991086Y-147952067D01*
X34954006Y-147962813D01*
X34915235Y-147965591D01*
X34878191Y-147960181D01*
X34841988Y-147946287D01*
X34810063Y-147925165D01*
X34780784Y-147895607D01*
X34760625Y-147866770D01*
X34731687Y-147786035D01*
X34727224Y-147682061D01*
X34752821Y-147554570D01*
X34813418Y-147410773D01*
X34856940Y-147337533D01*
X34907685Y-147267588D01*
X34974089Y-147193217D01*
X35040012Y-147132676D01*
X35105680Y-147082566D01*
X35170359Y-147042659D01*
X35233725Y-147012444D01*
X35294669Y-146991740D01*
X35353293Y-146979884D01*
X35408192Y-146976537D01*
X35459859Y-146981123D01*
X35506891Y-146993016D01*
X35549886Y-147011937D01*
X35609992Y-147056952D01*
X35669584Y-147137516D01*
X35703946Y-147233936D01*
X35714590Y-147352655D01*
X35698938Y-147504456D01*
X35650868Y-147712173D01*
X35635293Y-147769876D01*
X35592636Y-147935271D01*
X35567029Y-148087211D01*
X35565471Y-148155684D01*
X35573999Y-148217851D01*
X35594554Y-148272732D01*
X35629076Y-148319345D01*
X35663233Y-148348065D01*
X35698310Y-148367188D01*
X35731753Y-148376615D01*
X35765504Y-148378027D01*
X35833080Y-148357544D01*
X35898583Y-148307688D01*
X35950591Y-148235293D01*
X35977428Y-148148837D01*
X35979970Y-148045386D01*
X35956661Y-147923787D01*
X35917869Y-147809577D01*
X35909982Y-147788534D01*
X35898105Y-147746607D01*
X35894530Y-147707465D01*
X35909153Y-147636699D01*
X35947459Y-147580424D01*
X36010330Y-147538495D01*
X36047324Y-147527388D01*
X36085344Y-147524251D01*
X36121223Y-147529231D01*
X36155286Y-147542519D01*
X36183833Y-147562484D01*
X36208666Y-147590277D01*
X36218953Y-147606502D01*
G37*
G36*
X35462070Y-148805339D02*
G01*
X35008631Y-149258778D01*
X34990931Y-149271082D01*
X34980994Y-149265355D01*
X34973011Y-149239159D01*
X34969081Y-149223028D01*
X34928446Y-149112326D01*
X34850408Y-148980567D01*
X34738003Y-148838093D01*
X34671768Y-148767344D01*
X34053309Y-148148885D01*
X34046902Y-148137424D01*
X34050133Y-148127380D01*
X34055208Y-148123151D01*
X34506834Y-147850104D01*
X34528257Y-147841110D01*
X34537432Y-147851073D01*
X34541289Y-147869984D01*
X34544484Y-147887753D01*
X34585120Y-147998456D01*
X34663160Y-148130216D01*
X34775583Y-148272708D01*
X34841883Y-148343524D01*
X34968736Y-148470376D01*
X35094681Y-148583342D01*
X35191537Y-148655589D01*
X35300732Y-148720642D01*
X35362506Y-148748253D01*
X35424420Y-148767689D01*
X35434328Y-148769649D01*
X35470360Y-148780466D01*
X35473170Y-148790003D01*
X35462070Y-148805339D01*
G37*
G36*
X34181974Y-147933175D02*
G01*
X34111049Y-147983144D01*
X34026084Y-148006622D01*
X33980942Y-148007170D01*
X33936126Y-147999873D01*
X33893309Y-147984913D01*
X33852965Y-147962179D01*
X33815752Y-147931189D01*
X33766371Y-147860958D01*
X33742833Y-147776007D01*
X33742095Y-147730508D01*
X33749139Y-147685505D01*
X33763791Y-147642601D01*
X33786079Y-147602551D01*
X33815665Y-147566866D01*
X33886906Y-147516478D01*
X33972175Y-147492364D01*
X34062524Y-147498185D01*
X34105370Y-147512592D01*
X34145382Y-147534614D01*
X34182061Y-147564880D01*
X34233169Y-147636877D01*
X34257089Y-147721581D01*
X34250961Y-147811018D01*
X34236359Y-147853893D01*
X34214136Y-147894168D01*
X34181974Y-147933175D01*
G37*
G36*
X34005901Y-148370207D02*
G01*
X34012979Y-148382571D01*
X34010830Y-148395311D01*
X34005814Y-148401899D01*
X33912812Y-148494901D01*
X34429203Y-149011291D01*
X34555014Y-149124123D01*
X34651733Y-149196232D01*
X34760768Y-149261126D01*
X34822454Y-149288648D01*
X34884282Y-149307999D01*
X34894069Y-149309919D01*
X34930127Y-149320683D01*
X34932951Y-149330215D01*
X34921846Y-149345563D01*
X34468407Y-149799002D01*
X34450709Y-149811307D01*
X34440782Y-149805591D01*
X34432825Y-149779372D01*
X34428944Y-149763338D01*
X34388461Y-149652785D01*
X34310619Y-149521226D01*
X34198425Y-149378965D01*
X34132235Y-149308258D01*
X33615845Y-148791868D01*
X33435626Y-148972087D01*
X33423236Y-148979175D01*
X33410426Y-148976984D01*
X33404021Y-148972087D01*
X33376302Y-148944367D01*
X33369189Y-148931980D01*
X33371255Y-148919230D01*
X33376216Y-148912676D01*
X33603928Y-148684963D01*
X33591794Y-148599098D01*
X33573894Y-148525213D01*
X33551336Y-148463257D01*
X33524804Y-148411844D01*
X33495213Y-148370474D01*
X33463330Y-148338407D01*
X33429514Y-148314785D01*
X33395058Y-148299499D01*
X33325273Y-148291699D01*
X33261571Y-148313166D01*
X33236238Y-148333162D01*
X33213151Y-148361562D01*
X33198000Y-148391804D01*
X33187958Y-148459631D01*
X33204460Y-148543571D01*
X33263054Y-148675951D01*
X33275787Y-148701370D01*
X33292327Y-148742553D01*
X33300310Y-148782024D01*
X33293519Y-148855828D01*
X33258913Y-148920717D01*
X33245132Y-148935991D01*
X33179342Y-148980821D01*
X33140084Y-148993894D01*
X33099560Y-148999050D01*
X33061143Y-148995979D01*
X33024474Y-148984515D01*
X32993874Y-148966350D01*
X32966951Y-148940366D01*
X32932534Y-148876753D01*
X32914776Y-148782493D01*
X32923781Y-148669690D01*
X32963473Y-148540884D01*
X33033905Y-148409707D01*
X33105499Y-148321245D01*
X33156261Y-148275935D01*
X33207486Y-148240761D01*
X33256803Y-148216231D01*
X33306544Y-148200124D01*
X33406719Y-148191568D01*
X33513459Y-148213279D01*
X33633038Y-148269233D01*
X33772780Y-148368675D01*
X33851416Y-148437476D01*
X33946404Y-148342488D01*
X33958797Y-148335380D01*
X33971584Y-148337483D01*
X33978182Y-148342488D01*
X34005901Y-148370207D01*
G37*
G36*
X47260516Y-142277286D02*
G01*
X47273734Y-142361261D01*
X47260013Y-142469466D01*
X47213349Y-142598663D01*
X47134021Y-142730783D01*
X47074512Y-142800066D01*
X47022869Y-142846278D01*
X46970546Y-142882694D01*
X46919226Y-142909098D01*
X46867502Y-142927103D01*
X46763135Y-142939554D01*
X46654102Y-142921951D01*
X46537008Y-142871945D01*
X46409449Y-142784064D01*
X46317888Y-142700760D01*
X45285539Y-141668411D01*
X45279219Y-141656790D01*
X45283342Y-141645910D01*
X45289425Y-141640692D01*
X45738978Y-141369544D01*
X45760477Y-141360591D01*
X45769632Y-141370636D01*
X45773424Y-141389340D01*
X45776628Y-141407194D01*
X45817268Y-141517913D01*
X45895301Y-141649667D01*
X46007698Y-141792124D01*
X46073941Y-141862878D01*
X46614856Y-142403793D01*
X46620714Y-142504685D01*
X46633164Y-142590537D01*
X46650688Y-142660297D01*
X46672758Y-142717641D01*
X46697776Y-142762259D01*
X46725570Y-142796743D01*
X46755069Y-142821651D01*
X46785834Y-142838156D01*
X46850420Y-142848869D01*
X46916026Y-142831035D01*
X46961649Y-142798080D01*
X46983479Y-142770936D01*
X46997516Y-142741809D01*
X47005614Y-142675615D01*
X46986921Y-142592120D01*
X46927818Y-142464363D01*
X46906038Y-142421754D01*
X46889352Y-142380038D01*
X46881334Y-142340309D01*
X46888217Y-142267072D01*
X46922689Y-142204028D01*
X46933671Y-142192055D01*
X46997311Y-142149488D01*
X47035712Y-142137499D01*
X47075784Y-142133268D01*
X47114725Y-142137120D01*
X47152508Y-142149333D01*
X47185249Y-142168535D01*
X47214802Y-142195781D01*
X47238809Y-142229244D01*
X47258152Y-142270611D01*
X47260516Y-142277286D01*
G37*
G36*
X45432080Y-141066618D02*
G01*
X45483872Y-141139329D01*
X45508087Y-141224237D01*
X45508933Y-141268943D01*
X45501993Y-141313142D01*
X45487398Y-141355536D01*
X45465148Y-141395378D01*
X45434066Y-141432841D01*
X45363096Y-141482853D01*
X45278118Y-141506357D01*
X45232979Y-141506916D01*
X45188167Y-141499630D01*
X45145353Y-141484681D01*
X45105012Y-141461959D01*
X45067757Y-141430941D01*
X45018378Y-141360709D01*
X44994846Y-141275762D01*
X44994113Y-141230265D01*
X45001163Y-141185260D01*
X45015821Y-141142348D01*
X45038118Y-141102282D01*
X45067757Y-141066532D01*
X45138727Y-141016414D01*
X45223188Y-140992912D01*
X45312771Y-140999307D01*
X45355529Y-141014011D01*
X45395517Y-141036308D01*
X45432080Y-141066618D01*
G37*
G36*
X45325434Y-141858215D02*
G01*
X45365946Y-141968821D01*
X45443802Y-142100385D01*
X45556022Y-142242652D01*
X45622488Y-142313640D01*
X45749254Y-142440406D01*
X45826873Y-142523957D01*
X45892057Y-142608565D01*
X45933069Y-142675756D01*
X45964249Y-142744033D01*
X45982460Y-142803777D01*
X45992055Y-142864589D01*
X45992752Y-142921373D01*
X45985212Y-142979251D01*
X45969576Y-143036529D01*
X45945303Y-143095012D01*
X45867721Y-143217727D01*
X45778960Y-143317579D01*
X45728377Y-143362798D01*
X45676885Y-143398857D01*
X45570838Y-143446561D01*
X45460287Y-143464611D01*
X45344772Y-143454228D01*
X45335538Y-143452203D01*
X45451251Y-143567916D01*
X45076997Y-143942169D01*
X45059259Y-143954511D01*
X45049317Y-143948789D01*
X45041376Y-143922850D01*
X45037361Y-143906505D01*
X44996791Y-143795813D01*
X44918847Y-143664101D01*
X44806537Y-143521677D01*
X44740135Y-143450735D01*
X44121675Y-142832276D01*
X44115269Y-142820815D01*
X44118500Y-142810771D01*
X44123575Y-142806542D01*
X44575201Y-142533495D01*
X44596624Y-142524501D01*
X44605799Y-142534464D01*
X44609656Y-142553375D01*
X44612850Y-142571144D01*
X44653410Y-142681789D01*
X44731339Y-142813425D01*
X44843665Y-142955804D01*
X44910250Y-143026915D01*
X45112402Y-143229067D01*
X45215702Y-143310102D01*
X45276239Y-143342676D01*
X45340539Y-143367635D01*
X45400454Y-143382157D01*
X45460874Y-143387723D01*
X45513095Y-143384240D01*
X45563964Y-143372066D01*
X45607703Y-143353079D01*
X45649128Y-143325807D01*
X45676114Y-143301776D01*
X45705307Y-143267050D01*
X45725275Y-143230461D01*
X45735606Y-143194953D01*
X45738277Y-143157624D01*
X45720337Y-143075347D01*
X45664537Y-142973585D01*
X45553775Y-142839898D01*
X45515670Y-142800757D01*
X44834432Y-142119519D01*
X44828112Y-142107897D01*
X44832235Y-142097018D01*
X44838318Y-142091800D01*
X45287785Y-141820565D01*
X45309242Y-141811624D01*
X45318428Y-141821544D01*
X45322286Y-141840550D01*
X45325434Y-141858215D01*
G37*
G36*
X44964479Y-144054687D02*
G01*
X44511040Y-144508126D01*
X44493341Y-144520430D01*
X44483404Y-144514703D01*
X44475420Y-144488506D01*
X44471491Y-144472376D01*
X44430703Y-144361524D01*
X44352466Y-144229563D01*
X44239831Y-144086859D01*
X44173487Y-144016001D01*
X43931267Y-143773781D01*
X43835153Y-143689688D01*
X43741757Y-143623517D01*
X43681935Y-143592161D01*
X43623579Y-143572188D01*
X43577811Y-143565357D01*
X43533123Y-143567554D01*
X43494234Y-143577731D01*
X43456293Y-143596206D01*
X43403651Y-143638207D01*
X43368330Y-143678976D01*
X43341143Y-143722190D01*
X43310158Y-143814167D01*
X43307884Y-143917285D01*
X43336497Y-144035894D01*
X43402101Y-144174094D01*
X43512901Y-144334550D01*
X43678512Y-144518920D01*
X43732063Y-144569267D01*
X43834173Y-144654475D01*
X43965698Y-144744466D01*
X44036509Y-144781856D01*
X44107496Y-144809164D01*
X44128929Y-144814938D01*
X44139963Y-144816633D01*
X44172460Y-144825087D01*
X44177625Y-144835390D01*
X44166579Y-144852588D01*
X43713226Y-145305940D01*
X43693134Y-145318579D01*
X43680754Y-145300892D01*
X43669531Y-145254474D01*
X43639117Y-145168152D01*
X43564252Y-145044676D01*
X43435110Y-144882576D01*
X43280328Y-144718611D01*
X43278267Y-144716582D01*
X43224264Y-144657131D01*
X43177706Y-144594542D01*
X43106218Y-144460307D01*
X43064353Y-144316911D01*
X43052872Y-144167874D01*
X43072428Y-144017332D01*
X43093945Y-143942898D01*
X43123226Y-143869910D01*
X43160195Y-143798928D01*
X43204833Y-143730384D01*
X43298646Y-143620418D01*
X43406000Y-143534024D01*
X43525835Y-143475319D01*
X43609603Y-143452117D01*
X43554164Y-143396678D01*
X43547819Y-143385032D01*
X43551933Y-143374143D01*
X43558050Y-143368959D01*
X44007603Y-143097811D01*
X44029063Y-143088872D01*
X44038265Y-143098808D01*
X44042148Y-143117801D01*
X44045339Y-143135547D01*
X44086072Y-143246328D01*
X44164256Y-143378231D01*
X44276873Y-143520928D01*
X44343343Y-143591922D01*
X44470455Y-143719033D01*
X44596601Y-143832200D01*
X44693608Y-143904598D01*
X44802967Y-143969815D01*
X44864830Y-143997515D01*
X44926830Y-144017037D01*
X44936738Y-144018997D01*
X44972770Y-144029814D01*
X44975580Y-144039350D01*
X44964479Y-144054687D01*
G37*
G36*
X42729197Y-144603141D02*
G01*
X42804515Y-144618245D01*
X42878179Y-144641085D01*
X42950512Y-144671891D01*
X43019862Y-144710077D01*
X43086885Y-144756171D01*
X43174902Y-144833245D01*
X43228266Y-144892052D01*
X43274201Y-144953985D01*
X43344810Y-145087306D01*
X43386338Y-145230675D01*
X43397936Y-145380977D01*
X43378703Y-145534201D01*
X43328214Y-145685427D01*
X43291361Y-145758582D01*
X43246941Y-145829203D01*
X43140965Y-145955573D01*
X43026008Y-146049941D01*
X42900276Y-146116071D01*
X42764122Y-146155637D01*
X42619258Y-146168952D01*
X42472344Y-146156281D01*
X42346346Y-146123098D01*
X42329837Y-146103759D01*
X42332254Y-146091824D01*
X42342649Y-146083274D01*
X42360163Y-146081476D01*
X42445678Y-146089710D01*
X42568003Y-146080515D01*
X42638647Y-146062052D01*
X42713304Y-146030437D01*
X42790247Y-145982738D01*
X42867745Y-145916023D01*
X42914866Y-145863526D01*
X42952795Y-145810068D01*
X43003968Y-145700111D01*
X43025503Y-145584860D01*
X43018752Y-145462495D01*
X42982770Y-145332007D01*
X42916358Y-145195459D01*
X42891751Y-145155945D01*
X42177008Y-145870688D01*
X42160408Y-145882029D01*
X42142467Y-145885263D01*
X42126081Y-145880735D01*
X42111639Y-145868702D01*
X42056953Y-145803063D01*
X42009887Y-145734596D01*
X41970375Y-145663529D01*
X41938643Y-145590572D01*
X41914764Y-145516267D01*
X41898761Y-145441033D01*
X41890711Y-145365765D01*
X41890558Y-145290521D01*
X41898244Y-145216470D01*
X41913784Y-145143362D01*
X41936915Y-145072464D01*
X41955617Y-145030658D01*
X42092326Y-145030658D01*
X42092540Y-145128155D01*
X42123255Y-145232751D01*
X42186467Y-145338695D01*
X42236419Y-145395575D01*
X42290653Y-145444226D01*
X42337098Y-145473702D01*
X42368796Y-145484451D01*
X42398141Y-145485797D01*
X42450817Y-145465426D01*
X42509640Y-145415263D01*
X42842271Y-145082632D01*
X42828936Y-145067431D01*
X42768957Y-145001546D01*
X42701707Y-144939976D01*
X42629319Y-144885243D01*
X42561770Y-144844353D01*
X42492861Y-144813057D01*
X42434243Y-144795470D01*
X42376369Y-144787404D01*
X42327926Y-144788978D01*
X42281114Y-144799190D01*
X42240674Y-144816451D01*
X42202338Y-144841919D01*
X42178994Y-144862864D01*
X42145992Y-144901258D01*
X42120817Y-144942072D01*
X42092326Y-145030658D01*
X41955617Y-145030658D01*
X41967822Y-145003376D01*
X42006081Y-144937269D01*
X42052040Y-144873793D01*
X42111639Y-144807425D01*
X42227640Y-144712977D01*
X42359663Y-144644780D01*
X42503416Y-144605148D01*
X42578084Y-144596668D01*
X42653629Y-144595978D01*
X42729197Y-144603141D01*
G37*
G36*
X41522281Y-146468941D02*
G01*
X41575819Y-146522480D01*
X41594871Y-146546972D01*
X41585750Y-146564016D01*
X40967981Y-147181784D01*
X40987756Y-147201559D01*
X41113608Y-147314431D01*
X41210376Y-147386590D01*
X41319482Y-147451554D01*
X41381214Y-147479123D01*
X41443095Y-147498526D01*
X41454156Y-147500918D01*
X41490229Y-147512417D01*
X41492934Y-147522040D01*
X41481867Y-147537299D01*
X41028515Y-147990652D01*
X41010765Y-148003008D01*
X41000814Y-147997317D01*
X40992839Y-147971073D01*
X40988965Y-147955074D01*
X40948375Y-147844394D01*
X40870414Y-147712712D01*
X40758123Y-147570366D01*
X40691998Y-147499735D01*
X40671014Y-147478752D01*
X40558151Y-147591615D01*
X40541107Y-147600736D01*
X40516615Y-147581684D01*
X40480951Y-147546021D01*
X40468775Y-147528405D01*
X40478879Y-147512343D01*
X40591742Y-147399480D01*
X39756278Y-146564016D01*
X40350213Y-146564016D01*
X40888709Y-147102512D01*
X41383684Y-146607537D01*
X40350213Y-146564016D01*
X39756278Y-146564016D01*
X39726486Y-146534224D01*
X39732444Y-146532238D01*
X39726758Y-146525114D01*
X39730705Y-146514596D01*
X39734344Y-146510477D01*
X39849193Y-146395627D01*
X41522281Y-146468941D01*
G37*
G36*
X40307727Y-148711439D02*
G01*
X39276242Y-149742924D01*
X39256604Y-149757033D01*
X39237145Y-149759891D01*
X39199043Y-149737052D01*
X38879796Y-149417806D01*
X38864248Y-149397406D01*
X38863202Y-149384508D01*
X38880087Y-149377366D01*
X38893612Y-149380156D01*
X38975450Y-149395990D01*
X39078031Y-149384248D01*
X39208919Y-149338114D01*
X39375528Y-149247203D01*
X39583626Y-149100357D01*
X39833749Y-148890700D01*
X40028635Y-148709539D01*
X39902824Y-148663718D01*
X39759083Y-148643149D01*
X39588929Y-148648669D01*
X39376722Y-148684033D01*
X39128982Y-148744768D01*
X38860111Y-148809803D01*
X38730039Y-148832287D01*
X38604477Y-148842921D01*
X38484626Y-148837831D01*
X38371689Y-148813147D01*
X38266865Y-148764996D01*
X38171357Y-148689505D01*
X38106657Y-148603220D01*
X38067381Y-148499591D01*
X38055779Y-148380694D01*
X38074938Y-148249909D01*
X38097047Y-148181365D01*
X38127613Y-148112357D01*
X38167056Y-148042977D01*
X38215272Y-147974371D01*
X38299418Y-147879084D01*
X38373473Y-147810368D01*
X38446966Y-147752143D01*
X38594996Y-147662210D01*
X38741163Y-147606303D01*
X38881827Y-147582174D01*
X39010264Y-147587634D01*
X39109667Y-147616312D01*
X39154370Y-147640507D01*
X39189923Y-147668155D01*
X39216780Y-147698399D01*
X39235539Y-147730530D01*
X39250809Y-147799328D01*
X39236719Y-147869949D01*
X39195243Y-147931586D01*
X39164972Y-147956295D01*
X39129602Y-147974841D01*
X39090950Y-147986065D01*
X39048866Y-147989636D01*
X39005953Y-147985051D01*
X38961137Y-147971835D01*
X38949483Y-147966991D01*
X38855479Y-147929190D01*
X38761553Y-147901551D01*
X38685967Y-147888083D01*
X38612288Y-147884114D01*
X38551645Y-147889146D01*
X38493507Y-147902718D01*
X38444067Y-147922704D01*
X38397412Y-147950664D01*
X38350971Y-147990047D01*
X38325715Y-148020757D01*
X38307854Y-148054689D01*
X38297667Y-148090745D01*
X38295079Y-148128713D01*
X38313629Y-148208308D01*
X38335640Y-148249231D01*
X38366402Y-148289576D01*
X38383008Y-148307221D01*
X38464947Y-148368063D01*
X38576904Y-148413086D01*
X38730940Y-148442327D01*
X38949359Y-148454090D01*
X39220408Y-148450151D01*
X39520458Y-148446096D01*
X39669181Y-148451014D01*
X39813904Y-148464330D01*
X39952279Y-148488868D01*
X40081957Y-148527454D01*
X40200590Y-148582914D01*
X40305827Y-148658073D01*
X40319407Y-148685602D01*
X40307727Y-148711439D01*
G37*
G36*
X37845064Y-148816952D02*
G01*
X38006981Y-148858959D01*
X38171338Y-148933697D01*
X38335017Y-149042430D01*
X38473074Y-149164619D01*
X38548148Y-149245215D01*
X38615357Y-149328973D01*
X38672765Y-149413014D01*
X38721980Y-149499233D01*
X38761278Y-149583941D01*
X38792297Y-149669943D01*
X38813952Y-149753271D01*
X38827397Y-149837148D01*
X38832308Y-149917903D01*
X38829119Y-149998598D01*
X38818086Y-150076315D01*
X38798997Y-150153465D01*
X38772315Y-150228117D01*
X38737484Y-150301750D01*
X38694756Y-150373418D01*
X38643610Y-150443630D01*
X38562967Y-150533571D01*
X38494547Y-150596540D01*
X38424347Y-150650688D01*
X38353128Y-150695930D01*
X38280611Y-150732910D01*
X38206847Y-150761901D01*
X38132237Y-150783020D01*
X37979262Y-150802565D01*
X37821700Y-150791770D01*
X37660065Y-150749721D01*
X37495907Y-150674891D01*
X37332190Y-150565915D01*
X37194101Y-150443592D01*
X37119350Y-150363319D01*
X37052373Y-150279792D01*
X36995058Y-150195815D01*
X36945885Y-150109587D01*
X36906572Y-150024773D01*
X36875516Y-149938616D01*
X36853816Y-149855107D01*
X36840322Y-149771023D01*
X36835372Y-149690089D01*
X36838526Y-149609208D01*
X36849527Y-149531369D01*
X36868589Y-149454103D01*
X36879302Y-149424066D01*
X37059292Y-149424066D01*
X37083801Y-149549545D01*
X37144262Y-149695364D01*
X37247864Y-149863346D01*
X37401088Y-150052250D01*
X37491069Y-150146624D01*
X37597419Y-150247391D01*
X37704297Y-150337290D01*
X37801935Y-150409054D01*
X37898473Y-150469588D01*
X37983517Y-150513506D01*
X38066551Y-150546862D01*
X38138338Y-150567082D01*
X38207735Y-150577852D01*
X38267732Y-150579051D01*
X38325225Y-150571842D01*
X38375886Y-150557390D01*
X38423963Y-150535154D01*
X38503643Y-150474247D01*
X38539661Y-150432779D01*
X38567877Y-150388519D01*
X38601892Y-150292757D01*
X38607776Y-150184093D01*
X38583289Y-150058619D01*
X38522857Y-149912820D01*
X38419298Y-149744869D01*
X38266130Y-149556011D01*
X38176106Y-149461587D01*
X38069733Y-149360797D01*
X37962837Y-149270881D01*
X37865194Y-149199111D01*
X37768652Y-149138573D01*
X37683609Y-149094655D01*
X37600575Y-149061298D01*
X37528788Y-149041077D01*
X37459388Y-149030305D01*
X37399387Y-149029105D01*
X37341886Y-149036311D01*
X37291215Y-149050762D01*
X37243126Y-149072997D01*
X37163360Y-149133964D01*
X37127355Y-149175419D01*
X37099151Y-149219667D01*
X37065157Y-149315411D01*
X37059292Y-149424066D01*
X36879302Y-149424066D01*
X36895227Y-149379418D01*
X36930015Y-149305766D01*
X36972661Y-149234167D01*
X37023719Y-149164045D01*
X37103949Y-149074553D01*
X37172179Y-149011773D01*
X37242209Y-148957789D01*
X37313330Y-148912649D01*
X37385762Y-148875754D01*
X37459518Y-148846805D01*
X37534128Y-148825717D01*
X37687248Y-148806178D01*
X37845064Y-148816952D01*
G37*
G36*
X37845634Y-151173533D02*
G01*
X36814149Y-152205018D01*
X36794510Y-152219126D01*
X36775051Y-152221985D01*
X36736949Y-152199146D01*
X36417702Y-151879899D01*
X36402154Y-151859500D01*
X36401108Y-151846602D01*
X36417994Y-151839459D01*
X36431519Y-151842249D01*
X36513357Y-151858083D01*
X36615938Y-151846341D01*
X36746826Y-151800208D01*
X36913434Y-151709297D01*
X37121533Y-151562451D01*
X37371655Y-151352793D01*
X37566541Y-151171633D01*
X37440731Y-151125811D01*
X37296989Y-151105243D01*
X37126835Y-151110762D01*
X36914629Y-151146127D01*
X36666888Y-151206862D01*
X36398017Y-151271896D01*
X36267945Y-151294381D01*
X36142383Y-151305014D01*
X36022533Y-151299925D01*
X35909595Y-151275240D01*
X35804772Y-151227089D01*
X35709263Y-151151599D01*
X35644563Y-151065313D01*
X35605288Y-150961684D01*
X35593686Y-150842788D01*
X35612845Y-150712002D01*
X35634954Y-150643459D01*
X35665519Y-150574450D01*
X35704962Y-150505070D01*
X35753179Y-150436464D01*
X35837325Y-150341177D01*
X35911379Y-150272462D01*
X35984873Y-150214236D01*
X36132902Y-150124303D01*
X36279070Y-150068396D01*
X36419733Y-150044268D01*
X36548171Y-150049727D01*
X36647574Y-150078405D01*
X36692276Y-150102601D01*
X36727830Y-150130248D01*
X36754686Y-150160492D01*
X36773446Y-150192624D01*
X36788716Y-150261421D01*
X36774626Y-150332043D01*
X36733150Y-150393680D01*
X36702879Y-150418389D01*
X36667508Y-150436934D01*
X36628857Y-150448159D01*
X36586773Y-150451729D01*
X36543859Y-150447145D01*
X36499044Y-150433928D01*
X36487389Y-150429084D01*
X36393386Y-150391283D01*
X36299459Y-150363645D01*
X36223874Y-150350176D01*
X36150195Y-150346208D01*
X36089551Y-150351239D01*
X36031413Y-150364812D01*
X35981973Y-150384798D01*
X35935318Y-150412758D01*
X35888877Y-150452141D01*
X35863621Y-150482851D01*
X35845761Y-150516782D01*
X35835573Y-150552838D01*
X35832986Y-150590806D01*
X35851536Y-150670402D01*
X35873547Y-150711325D01*
X35904309Y-150751669D01*
X35920914Y-150769315D01*
X36002854Y-150830156D01*
X36114810Y-150875180D01*
X36268847Y-150904421D01*
X36487265Y-150916184D01*
X36758314Y-150912245D01*
X37058365Y-150908190D01*
X37207088Y-150913108D01*
X37351811Y-150926423D01*
X37490186Y-150950961D01*
X37619864Y-150989548D01*
X37738496Y-151045008D01*
X37843734Y-151120167D01*
X37857313Y-151147695D01*
X37845634Y-151173533D01*
G37*
G36*
X36407685Y-152039307D02*
G01*
X36438737Y-152162824D01*
X36444096Y-152314387D01*
X36435155Y-152397428D01*
X36417984Y-152482351D01*
X36392761Y-152566837D01*
X36359109Y-152650845D01*
X36318821Y-152729729D01*
X36270443Y-152806118D01*
X36166243Y-152930296D01*
X36097993Y-152993150D01*
X36029218Y-153046258D01*
X35959745Y-153090375D01*
X35890348Y-153125597D01*
X35750316Y-153171925D01*
X35609755Y-153187532D01*
X35469989Y-153173484D01*
X35334129Y-153130300D01*
X35208344Y-153059547D01*
X35122582Y-152987461D01*
X35076714Y-152936122D01*
X35039072Y-152882290D01*
X35009887Y-152827052D01*
X34988282Y-152769666D01*
X34966999Y-152647720D01*
X34975194Y-152513509D01*
X35015824Y-152363832D01*
X35094105Y-152195983D01*
X35216490Y-152008372D01*
X35389439Y-151801098D01*
X35476801Y-151710302D01*
X35617384Y-151569720D01*
X35195723Y-151330263D01*
X35019743Y-151525377D01*
X34850196Y-151741969D01*
X34780750Y-151848201D01*
X34723747Y-151953461D01*
X34690588Y-152032593D01*
X34668516Y-152109150D01*
X34659839Y-152169185D01*
X34660527Y-152226447D01*
X34677001Y-152296293D01*
X34683875Y-152324169D01*
X34679218Y-152337589D01*
X34678901Y-152337915D01*
X34659525Y-152337199D01*
X34653254Y-152331957D01*
X34324681Y-152003384D01*
X34306061Y-151978891D01*
X34301777Y-151955606D01*
X34318636Y-151926184D01*
X35088818Y-151156003D01*
X35105244Y-151144987D01*
X35124374Y-151141617D01*
X35150215Y-151150045D01*
X35793544Y-151516181D01*
X35806687Y-151528316D01*
X35810369Y-151542038D01*
X35801488Y-151559703D01*
X35552015Y-151809176D01*
X35482568Y-151884032D01*
X35424530Y-151957832D01*
X35378185Y-152029014D01*
X35341814Y-152098841D01*
X35315173Y-152166396D01*
X35297326Y-152232302D01*
X35287777Y-152296589D01*
X35286113Y-152358890D01*
X35305241Y-152479454D01*
X35353801Y-152594237D01*
X35432120Y-152701895D01*
X35455213Y-152726158D01*
X35517160Y-152782742D01*
X35580021Y-152830179D01*
X35644448Y-152869445D01*
X35708154Y-152899554D01*
X35770751Y-152920842D01*
X35830885Y-152933264D01*
X35886660Y-152937042D01*
X35938406Y-152932693D01*
X35983188Y-152921184D01*
X36022864Y-152902666D01*
X36061324Y-152872871D01*
X36095754Y-152833008D01*
X36121173Y-152791659D01*
X36147874Y-152705341D01*
X36147927Y-152602478D01*
X36118184Y-152461258D01*
X36074014Y-152316239D01*
X36029460Y-152171772D01*
X36019880Y-152123748D01*
X36018479Y-152079032D01*
X36037559Y-151999848D01*
X36078854Y-151940174D01*
X36142344Y-151897965D01*
X36179293Y-151887130D01*
X36217849Y-151884146D01*
X36255466Y-151889230D01*
X36292385Y-151902641D01*
X36325743Y-151923482D01*
X36356589Y-151952667D01*
X36383175Y-151989239D01*
X36405722Y-152034399D01*
X36407685Y-152039307D01*
G37*
D11*
X60699163Y-157752040D02*
X60764212Y-157769469D01*
X60764212Y-157769469D02*
X60911739Y-157739280D01*
X60911739Y-157739280D02*
X60994218Y-157691661D01*
X60994218Y-157691661D02*
X61094126Y-157578993D01*
X61094126Y-157578993D02*
X61128986Y-157448896D01*
X61128986Y-157448896D02*
X61122606Y-157342607D01*
X61122606Y-157342607D02*
X61068607Y-157153841D01*
X61068607Y-157153841D02*
X60997179Y-157030123D01*
X60997179Y-157030123D02*
X60860701Y-156888975D01*
X60860701Y-156888975D02*
X60771843Y-156830306D01*
X60771843Y-156830306D02*
X60641745Y-156795446D01*
X60641745Y-156795446D02*
X60494218Y-156825636D01*
X60494218Y-156825636D02*
X60411739Y-156873255D01*
X60411739Y-156873255D02*
X60311831Y-156985923D01*
X60311831Y-156985923D02*
X60294401Y-157050971D01*
X59921996Y-158310709D02*
X60416868Y-158024994D01*
X60169432Y-158167852D02*
X59669432Y-157301826D01*
X59669432Y-157301826D02*
X59823339Y-157377925D01*
X59823339Y-157377925D02*
X59953437Y-157412785D01*
X59953437Y-157412785D02*
X60059725Y-157406405D01*
X58365238Y-151250057D02*
X58460476Y-151202438D01*
X58460476Y-151202438D02*
X58555714Y-151107200D01*
X58555714Y-151107200D02*
X58698571Y-150964342D01*
X58698571Y-150964342D02*
X58793809Y-150916723D01*
X58793809Y-150916723D02*
X58889047Y-150916723D01*
X58841428Y-151154819D02*
X58936666Y-151107200D01*
X58936666Y-151107200D02*
X59031904Y-151011961D01*
X59031904Y-151011961D02*
X59079523Y-150821485D01*
X59079523Y-150821485D02*
X59079523Y-150488152D01*
X59079523Y-150488152D02*
X59031904Y-150297676D01*
X59031904Y-150297676D02*
X58936666Y-150202438D01*
X58936666Y-150202438D02*
X58841428Y-150154819D01*
X58841428Y-150154819D02*
X58650952Y-150154819D01*
X58650952Y-150154819D02*
X58555714Y-150202438D01*
X58555714Y-150202438D02*
X58460476Y-150297676D01*
X58460476Y-150297676D02*
X58412857Y-150488152D01*
X58412857Y-150488152D02*
X58412857Y-150821485D01*
X58412857Y-150821485D02*
X58460476Y-151011961D01*
X58460476Y-151011961D02*
X58555714Y-151107200D01*
X58555714Y-151107200D02*
X58650952Y-151154819D01*
X58650952Y-151154819D02*
X58841428Y-151154819D01*
X57460476Y-151154819D02*
X58031904Y-151154819D01*
X57746190Y-151154819D02*
X57746190Y-150154819D01*
X57746190Y-150154819D02*
X57841428Y-150297676D01*
X57841428Y-150297676D02*
X57936666Y-150392914D01*
X57936666Y-150392914D02*
X58031904Y-150440533D01*
X50865238Y-152250057D02*
X50960476Y-152202438D01*
X50960476Y-152202438D02*
X51055714Y-152107200D01*
X51055714Y-152107200D02*
X51198571Y-151964342D01*
X51198571Y-151964342D02*
X51293809Y-151916723D01*
X51293809Y-151916723D02*
X51389047Y-151916723D01*
X51341428Y-152154819D02*
X51436666Y-152107200D01*
X51436666Y-152107200D02*
X51531904Y-152011961D01*
X51531904Y-152011961D02*
X51579523Y-151821485D01*
X51579523Y-151821485D02*
X51579523Y-151488152D01*
X51579523Y-151488152D02*
X51531904Y-151297676D01*
X51531904Y-151297676D02*
X51436666Y-151202438D01*
X51436666Y-151202438D02*
X51341428Y-151154819D01*
X51341428Y-151154819D02*
X51150952Y-151154819D01*
X51150952Y-151154819D02*
X51055714Y-151202438D01*
X51055714Y-151202438D02*
X50960476Y-151297676D01*
X50960476Y-151297676D02*
X50912857Y-151488152D01*
X50912857Y-151488152D02*
X50912857Y-151821485D01*
X50912857Y-151821485D02*
X50960476Y-152011961D01*
X50960476Y-152011961D02*
X51055714Y-152107200D01*
X51055714Y-152107200D02*
X51150952Y-152154819D01*
X51150952Y-152154819D02*
X51341428Y-152154819D01*
X50579523Y-151154819D02*
X49960476Y-151154819D01*
X49960476Y-151154819D02*
X50293809Y-151535771D01*
X50293809Y-151535771D02*
X50150952Y-151535771D01*
X50150952Y-151535771D02*
X50055714Y-151583390D01*
X50055714Y-151583390D02*
X50008095Y-151631009D01*
X50008095Y-151631009D02*
X49960476Y-151726247D01*
X49960476Y-151726247D02*
X49960476Y-151964342D01*
X49960476Y-151964342D02*
X50008095Y-152059580D01*
X50008095Y-152059580D02*
X50055714Y-152107200D01*
X50055714Y-152107200D02*
X50150952Y-152154819D01*
X50150952Y-152154819D02*
X50436666Y-152154819D01*
X50436666Y-152154819D02*
X50531904Y-152107200D01*
X50531904Y-152107200D02*
X50579523Y-152059580D01*
X52270714Y-108931009D02*
X52127857Y-108978628D01*
X52127857Y-108978628D02*
X52080238Y-109026247D01*
X52080238Y-109026247D02*
X52032619Y-109121485D01*
X52032619Y-109121485D02*
X52032619Y-109264342D01*
X52032619Y-109264342D02*
X52080238Y-109359580D01*
X52080238Y-109359580D02*
X52127857Y-109407200D01*
X52127857Y-109407200D02*
X52223095Y-109454819D01*
X52223095Y-109454819D02*
X52604047Y-109454819D01*
X52604047Y-109454819D02*
X52604047Y-108454819D01*
X52604047Y-108454819D02*
X52270714Y-108454819D01*
X52270714Y-108454819D02*
X52175476Y-108502438D01*
X52175476Y-108502438D02*
X52127857Y-108550057D01*
X52127857Y-108550057D02*
X52080238Y-108645295D01*
X52080238Y-108645295D02*
X52080238Y-108740533D01*
X52080238Y-108740533D02*
X52127857Y-108835771D01*
X52127857Y-108835771D02*
X52175476Y-108883390D01*
X52175476Y-108883390D02*
X52270714Y-108931009D01*
X52270714Y-108931009D02*
X52604047Y-108931009D01*
X51746904Y-108454819D02*
X51175476Y-108454819D01*
X51461190Y-109454819D02*
X51461190Y-108454819D01*
X50318333Y-109454819D02*
X50889761Y-109454819D01*
X50604047Y-109454819D02*
X50604047Y-108454819D01*
X50604047Y-108454819D02*
X50699285Y-108597676D01*
X50699285Y-108597676D02*
X50794523Y-108692914D01*
X50794523Y-108692914D02*
X50889761Y-108740533D01*
X55949627Y-157555963D02*
X56053945Y-157534616D01*
X56053945Y-157534616D02*
X56170587Y-157467273D01*
X56170587Y-157467273D02*
X56345551Y-157366258D01*
X56345551Y-157366258D02*
X56449868Y-157344911D01*
X56449868Y-157344911D02*
X56541861Y-157369560D01*
X56434241Y-157587218D02*
X56538559Y-157565871D01*
X56538559Y-157565871D02*
X56655201Y-157498527D01*
X56655201Y-157498527D02*
X56750497Y-157326866D01*
X56750497Y-157326866D02*
X56836770Y-157004891D01*
X56836770Y-157004891D02*
X56840072Y-156808580D01*
X56840072Y-156808580D02*
X56772729Y-156691938D01*
X56772729Y-156691938D02*
X56693060Y-156621292D01*
X56693060Y-156621292D02*
X56509074Y-156571993D01*
X56509074Y-156571993D02*
X56404757Y-156593340D01*
X56404757Y-156593340D02*
X56288114Y-156660683D01*
X56288114Y-156660683D02*
X56192819Y-156832345D01*
X56192819Y-156832345D02*
X56106546Y-157154320D01*
X56106546Y-157154320D02*
X56103244Y-157350630D01*
X56103244Y-157350630D02*
X56170587Y-157467273D01*
X56170587Y-157467273D02*
X56250255Y-157537919D01*
X56250255Y-157537919D02*
X56434241Y-157587218D01*
X55886471Y-156503765D02*
X55852799Y-156445443D01*
X55852799Y-156445443D02*
X55773131Y-156374797D01*
X55773131Y-156374797D02*
X55543149Y-156313174D01*
X55543149Y-156313174D02*
X55438831Y-156334521D01*
X55438831Y-156334521D02*
X55380510Y-156368193D01*
X55380510Y-156368193D02*
X55309864Y-156447861D01*
X55309864Y-156447861D02*
X55285215Y-156539854D01*
X55285215Y-156539854D02*
X55294237Y-156690168D01*
X55294237Y-156690168D02*
X55698298Y-157390022D01*
X55698298Y-157390022D02*
X55100344Y-157229801D01*
X94155238Y-146364819D02*
X94488571Y-145888628D01*
X94726666Y-146364819D02*
X94726666Y-145364819D01*
X94726666Y-145364819D02*
X94345714Y-145364819D01*
X94345714Y-145364819D02*
X94250476Y-145412438D01*
X94250476Y-145412438D02*
X94202857Y-145460057D01*
X94202857Y-145460057D02*
X94155238Y-145555295D01*
X94155238Y-145555295D02*
X94155238Y-145698152D01*
X94155238Y-145698152D02*
X94202857Y-145793390D01*
X94202857Y-145793390D02*
X94250476Y-145841009D01*
X94250476Y-145841009D02*
X94345714Y-145888628D01*
X94345714Y-145888628D02*
X94726666Y-145888628D01*
X93869523Y-145364819D02*
X93536190Y-146364819D01*
X93536190Y-146364819D02*
X93202857Y-145364819D01*
X92345714Y-146364819D02*
X92917142Y-146364819D01*
X92631428Y-146364819D02*
X92631428Y-145364819D01*
X92631428Y-145364819D02*
X92726666Y-145507676D01*
X92726666Y-145507676D02*
X92821904Y-145602914D01*
X92821904Y-145602914D02*
X92917142Y-145650533D01*
X96666666Y-130109580D02*
X96714285Y-130157200D01*
X96714285Y-130157200D02*
X96857142Y-130204819D01*
X96857142Y-130204819D02*
X96952380Y-130204819D01*
X96952380Y-130204819D02*
X97095237Y-130157200D01*
X97095237Y-130157200D02*
X97190475Y-130061961D01*
X97190475Y-130061961D02*
X97238094Y-129966723D01*
X97238094Y-129966723D02*
X97285713Y-129776247D01*
X97285713Y-129776247D02*
X97285713Y-129633390D01*
X97285713Y-129633390D02*
X97238094Y-129442914D01*
X97238094Y-129442914D02*
X97190475Y-129347676D01*
X97190475Y-129347676D02*
X97095237Y-129252438D01*
X97095237Y-129252438D02*
X96952380Y-129204819D01*
X96952380Y-129204819D02*
X96857142Y-129204819D01*
X96857142Y-129204819D02*
X96714285Y-129252438D01*
X96714285Y-129252438D02*
X96666666Y-129300057D01*
X96285713Y-129300057D02*
X96238094Y-129252438D01*
X96238094Y-129252438D02*
X96142856Y-129204819D01*
X96142856Y-129204819D02*
X95904761Y-129204819D01*
X95904761Y-129204819D02*
X95809523Y-129252438D01*
X95809523Y-129252438D02*
X95761904Y-129300057D01*
X95761904Y-129300057D02*
X95714285Y-129395295D01*
X95714285Y-129395295D02*
X95714285Y-129490533D01*
X95714285Y-129490533D02*
X95761904Y-129633390D01*
X95761904Y-129633390D02*
X96333332Y-130204819D01*
X96333332Y-130204819D02*
X95714285Y-130204819D01*
D12*
%TO.C,C1*%
X58899986Y-162089104D02*
X60933986Y-165612096D01*
X58900345Y-162169726D02*
X60864345Y-165571473D01*
X58901127Y-162011080D02*
X59431627Y-162929934D01*
X58902704Y-162253812D02*
X60792704Y-165527388D01*
X58903768Y-161935655D02*
X59466268Y-162909933D01*
X58906563Y-162340496D02*
X60719563Y-165480704D01*
X58907409Y-161861961D02*
X59500909Y-162889933D01*
X58912050Y-161790000D02*
X59535550Y-162869934D01*
X58912922Y-162431510D02*
X60643922Y-165429690D01*
X58918191Y-161720636D02*
X59570191Y-162849934D01*
X58921781Y-162526854D02*
X60565780Y-165374345D01*
X58924832Y-161652139D02*
X59604832Y-162829934D01*
X58932975Y-161586240D02*
X59639473Y-162809933D01*
X58933140Y-162626529D02*
X60485140Y-165314672D01*
X58941614Y-161521206D02*
X59674114Y-162789933D01*
X58947999Y-162732266D02*
X60400999Y-165248935D01*
X58951255Y-161457905D02*
X59708755Y-162769934D01*
X58961396Y-161395470D02*
X59743396Y-162749934D01*
X58966857Y-162844929D02*
X60312858Y-165176270D01*
X58972538Y-161334768D02*
X59778037Y-162729933D01*
X58984678Y-161275795D02*
X59812678Y-162709933D01*
X58991216Y-162967121D02*
X60219217Y-165094079D01*
X58996818Y-161216825D02*
X59847319Y-162689934D01*
X59009960Y-161159585D02*
X59881960Y-162669934D01*
X59022076Y-163100570D02*
X60119076Y-165000630D01*
X59023601Y-161103214D02*
X59916601Y-162649934D01*
X59037743Y-161047705D02*
X59951242Y-162629933D01*
X59052883Y-160993930D02*
X59985883Y-162609934D01*
X59062434Y-163250474D02*
X60009435Y-164890726D01*
X59068024Y-160940155D02*
X60020523Y-162589934D01*
X59084166Y-160888112D02*
X60055164Y-162569934D01*
X59100306Y-160836069D02*
X60089806Y-162549933D01*
X59116947Y-160784892D02*
X60124447Y-162529934D01*
X59117294Y-163425493D02*
X59885294Y-164755708D01*
X59134588Y-160735448D02*
X60159088Y-162509934D01*
X59152229Y-160686003D02*
X60193729Y-162489934D01*
X59170370Y-160637424D02*
X60228370Y-162469933D01*
X59189011Y-160589711D02*
X60263012Y-162449934D01*
X59200153Y-163649008D02*
X59733153Y-164572192D01*
X59208153Y-160542864D02*
X60297653Y-162429934D01*
X59227293Y-160496018D02*
X60332294Y-162409933D01*
X59246934Y-160450036D02*
X60366935Y-162389933D01*
X59267076Y-160404922D02*
X60401576Y-162369933D01*
X59287717Y-160360673D02*
X60436217Y-162349934D01*
X59308357Y-160316424D02*
X60470858Y-162329934D01*
X59329498Y-160273042D02*
X60505499Y-162309933D01*
X59351140Y-160230525D02*
X60540140Y-162289933D01*
X59373281Y-160188875D02*
X60574781Y-162269934D01*
X59395421Y-160147224D02*
X60609422Y-162249934D01*
X59417563Y-160105573D02*
X60644064Y-162229933D01*
X59440704Y-160065655D02*
X60678705Y-162209933D01*
X59463845Y-160025736D02*
X60713345Y-162189934D01*
X59486985Y-159985818D02*
X60747986Y-162169934D01*
X59510626Y-159946765D02*
X60782627Y-162149934D01*
X59534768Y-159908579D02*
X60817269Y-162129933D01*
X59558909Y-159870392D02*
X60851909Y-162109934D01*
X59583550Y-159833071D02*
X60886550Y-162089934D01*
X59608190Y-159795751D02*
X60921191Y-162069934D01*
X59633332Y-159759296D02*
X60955832Y-162049934D01*
X59658473Y-159722842D02*
X60990473Y-162029934D01*
X59684114Y-159687254D02*
X61025114Y-162009934D01*
X59709755Y-159651665D02*
X61059755Y-161989934D01*
X59735896Y-159616943D02*
X61094395Y-161969933D01*
X59762537Y-159583086D02*
X61129036Y-161949933D01*
X59789178Y-159549230D02*
X61163678Y-161929934D01*
X59815819Y-159515373D02*
X61198319Y-161909934D01*
X59842959Y-159482383D02*
X63662960Y-166098817D01*
X59870101Y-159449393D02*
X63705101Y-166091808D01*
X59897742Y-159417268D02*
X63746742Y-166083932D01*
X59925383Y-159385144D02*
X63788383Y-166076056D01*
X59953524Y-159353886D02*
X63829524Y-166067314D01*
X59981665Y-159322628D02*
X63870665Y-166058573D01*
X60010306Y-159292235D02*
X63911306Y-166048965D01*
X60038947Y-159261843D02*
X63951947Y-166039357D01*
X60067588Y-159231450D02*
X63992588Y-166029750D01*
X60096729Y-159201924D02*
X64032729Y-166019276D01*
X60125870Y-159172398D02*
X64072871Y-166008803D01*
X60155511Y-159143737D02*
X64112511Y-165997463D01*
X60185152Y-159115077D02*
X64152152Y-165986123D01*
X60215293Y-159087283D02*
X64191293Y-165973917D01*
X60245434Y-159059489D02*
X64230435Y-165961711D01*
X60276075Y-159032561D02*
X64269075Y-165948639D01*
X60306216Y-159004766D02*
X64308218Y-165936434D01*
X60337357Y-158978704D02*
X64346357Y-165922496D01*
X60367998Y-158951776D02*
X64384998Y-165909424D01*
X60399639Y-158926580D02*
X64422639Y-165894620D01*
X60430780Y-158900518D02*
X64460781Y-165880682D01*
X60462421Y-158875321D02*
X64498422Y-165865879D01*
X60471627Y-164731266D02*
X61002128Y-165650120D01*
X60494062Y-158850125D02*
X64536063Y-165851074D01*
X60506268Y-164711266D02*
X61068768Y-165685545D01*
X60526203Y-158825797D02*
X64573204Y-165835404D01*
X60540909Y-164691266D02*
X61134409Y-165719239D01*
X60558344Y-158801465D02*
X64610344Y-165819735D01*
X60575550Y-164671266D02*
X61199050Y-165751200D01*
X60590985Y-158778001D02*
X64646985Y-165803199D01*
X60610191Y-164651266D02*
X61262191Y-165780564D01*
X60623126Y-158753670D02*
X64684126Y-165787529D01*
X60644832Y-164631266D02*
X61324832Y-165809061D01*
X60656268Y-158731074D02*
X64720268Y-165770127D01*
X60679474Y-164611266D02*
X61385973Y-165834960D01*
X60688908Y-158707608D02*
X64756908Y-165753591D01*
X60714115Y-164591266D02*
X61446614Y-165859994D01*
X60722550Y-158685877D02*
X64792550Y-165735323D01*
X60748755Y-164571266D02*
X61506255Y-165883295D01*
X60755690Y-158663278D02*
X64828690Y-165717921D01*
X60783397Y-164551267D02*
X61565397Y-165905730D01*
X60789332Y-158641547D02*
X64864331Y-165699653D01*
X60818038Y-164531266D02*
X61623537Y-165926433D01*
X60822972Y-158619814D02*
X64899973Y-165681385D01*
X60852679Y-164511266D02*
X61680678Y-165945404D01*
X60857113Y-158598948D02*
X64935113Y-165662251D01*
X60887319Y-164491266D02*
X61737819Y-165964375D01*
X60891254Y-158578083D02*
X64970254Y-165643118D01*
X60921961Y-164471267D02*
X61793960Y-165981615D01*
X60925396Y-158557216D02*
X65005395Y-165623984D01*
X60956602Y-164451267D02*
X61849602Y-165997987D01*
X60960037Y-158537216D02*
X65040036Y-165603984D01*
X60991242Y-164431266D02*
X61904742Y-166013495D01*
X61025883Y-164411266D02*
X61958883Y-166027270D01*
X61060525Y-164391267D02*
X62013024Y-166041045D01*
X61095164Y-164371267D02*
X62066166Y-166053089D01*
X61129806Y-164351266D02*
X62119306Y-166065130D01*
X61164447Y-164331266D02*
X62171947Y-166076308D01*
X61199089Y-164311267D02*
X62223588Y-166085753D01*
X61233729Y-164291267D02*
X62275229Y-166095196D01*
X61268370Y-164271266D02*
X62326370Y-166103776D01*
X61303011Y-164251266D02*
X62377011Y-166111489D01*
X61337652Y-164231266D02*
X62427152Y-166118336D01*
X61372293Y-164211267D02*
X62477293Y-166125183D01*
X61406934Y-164191267D02*
X62526935Y-166131163D01*
X61441575Y-164171266D02*
X62576076Y-166136278D01*
X61476216Y-164151266D02*
X62624717Y-166140527D01*
X61510857Y-164131267D02*
X62673358Y-166144775D01*
X61545498Y-164111267D02*
X62721499Y-166148158D01*
X61580139Y-164091266D02*
X62769140Y-166150675D01*
X61614780Y-164071266D02*
X62816281Y-166152325D01*
X61649421Y-164051267D02*
X62863422Y-166153977D01*
X61684062Y-164031267D02*
X62910563Y-166155627D01*
X61718705Y-164011266D02*
X62956703Y-166155544D01*
X61753345Y-163991266D02*
X63002844Y-166155464D01*
X61787986Y-163971267D02*
X63048985Y-166155382D01*
X61822627Y-163951267D02*
X63094626Y-166154436D01*
X61857268Y-163931266D02*
X63139768Y-166152622D01*
X61891909Y-163911266D02*
X63184909Y-166150808D01*
X61926550Y-163891267D02*
X63229551Y-166148128D01*
X61961191Y-163871267D02*
X63274191Y-166145449D01*
X61995832Y-163851266D02*
X63318332Y-166141904D01*
X62030473Y-163831266D02*
X63362473Y-166138358D01*
X62065114Y-163811266D02*
X63406114Y-166133947D01*
X62099755Y-163791267D02*
X63449754Y-166129536D01*
X62134396Y-163771266D02*
X63492894Y-166124257D01*
X62169037Y-163751266D02*
X63535536Y-166118114D01*
X62203678Y-163731266D02*
X63578178Y-166111971D01*
X62238319Y-163711267D02*
X63620819Y-166105827D01*
X65115037Y-157714492D02*
X65515037Y-158407312D01*
X65661447Y-157860902D02*
X64968627Y-158260902D01*
X67120035Y-162070600D02*
G75*
G02*
X58880037Y-162070600I-4119999J0D01*
G01*
X58880037Y-162070600D02*
G75*
G02*
X67120035Y-162070600I4119999J0D01*
G01*
%TO.C,Q1*%
X60070000Y-156350000D02*
X56470000Y-156350000D01*
X56461555Y-156327684D02*
G75*
G02*
X57490000Y-152050000I1808445J1827684D01*
G01*
X59090000Y-152050000D02*
G75*
G02*
X60081453Y-156342156I-820000J-2450000D01*
G01*
%TO.C,Q3*%
X52570000Y-157350000D02*
X48970000Y-157350000D01*
X48961555Y-157327684D02*
G75*
G02*
X49990000Y-153050000I1808445J1827684D01*
G01*
X51590000Y-153050000D02*
G75*
G02*
X52581453Y-157342156I-820000J-2450000D01*
G01*
%TO.C,BT1*%
X40705000Y-115040000D02*
X40705000Y-117500000D01*
X40705000Y-123500000D02*
X40705000Y-124130000D01*
X40705000Y-124130000D02*
X42145000Y-128080000D01*
X42785000Y-112960000D02*
X40705000Y-115040000D01*
X42785000Y-112960000D02*
X46285000Y-112960000D01*
X56685000Y-112960000D02*
X60185000Y-112960000D01*
X60185000Y-112960000D02*
X62265000Y-115040000D01*
X62265000Y-115040000D02*
X62265000Y-117500000D01*
X62265000Y-123500000D02*
X62265000Y-124130000D01*
X62265000Y-124130000D02*
X60825000Y-128080000D01*
X45485000Y-129050000D02*
G75*
G02*
X42159757Y-128088169I-1310000J1700000D01*
G01*
X60825000Y-128080000D02*
G75*
G02*
X57488354Y-129066530I-2030000J730001D01*
G01*
%TO.C,Q2*%
X56986625Y-162581537D02*
X53509292Y-161649788D01*
X53506911Y-161626047D02*
G75*
G02*
X55607459Y-157760303I2219863J1297347D01*
G01*
X57152940Y-158174413D02*
G75*
G02*
X56999718Y-162576925I-1426166J-2154287D01*
G01*
%TO.C,RV1*%
X89950000Y-147050000D02*
X89950000Y-153870000D01*
X93118000Y-147050000D02*
X89950000Y-147050000D01*
X93118000Y-153870000D02*
X89950000Y-153870000D01*
X97170000Y-147050000D02*
X93882000Y-147050000D01*
X97170000Y-147050000D02*
X97170000Y-153870000D01*
X97170000Y-153870000D02*
X93882000Y-153870000D01*
%TO.C,C2*%
X92420000Y-134467000D02*
X92420000Y-135533000D01*
X92460000Y-134232000D02*
X92460000Y-135768000D01*
X92500000Y-134053000D02*
X92500000Y-135947000D01*
X92540000Y-133903000D02*
X92540000Y-136097000D01*
X92580000Y-133772000D02*
X92580000Y-136228000D01*
X92620000Y-133654000D02*
X92620000Y-136346000D01*
X92660000Y-133547000D02*
X92660000Y-136453000D01*
X92700000Y-133448000D02*
X92700000Y-136552000D01*
X92740000Y-133356000D02*
X92740000Y-136644000D01*
X92780000Y-133269000D02*
X92780000Y-136731000D01*
X92820000Y-133187000D02*
X92820000Y-136813000D01*
X92860000Y-133110000D02*
X92860000Y-136890000D01*
X92900000Y-133036000D02*
X92900000Y-136964000D01*
X92940000Y-132966000D02*
X92940000Y-137034000D01*
X92980000Y-132899000D02*
X92980000Y-133960000D01*
X92980000Y-136040000D02*
X92980000Y-137101000D01*
X93020000Y-132835000D02*
X93020000Y-133960000D01*
X93020000Y-136040000D02*
X93020000Y-137165000D01*
X93060000Y-132773000D02*
X93060000Y-133960000D01*
X93060000Y-136040000D02*
X93060000Y-137227000D01*
X93100000Y-132713000D02*
X93100000Y-133960000D01*
X93100000Y-136040000D02*
X93100000Y-137287000D01*
X93140000Y-132656000D02*
X93140000Y-133960000D01*
X93140000Y-136040000D02*
X93140000Y-137344000D01*
X93180000Y-132600000D02*
X93180000Y-133960000D01*
X93180000Y-136040000D02*
X93180000Y-137400000D01*
X93220000Y-132547000D02*
X93220000Y-133960000D01*
X93220000Y-136040000D02*
X93220000Y-137453000D01*
X93260000Y-132495000D02*
X93260000Y-133960000D01*
X93260000Y-136040000D02*
X93260000Y-137505000D01*
X93300000Y-132445000D02*
X93300000Y-133960000D01*
X93300000Y-136040000D02*
X93300000Y-137555000D01*
X93340000Y-132396000D02*
X93340000Y-133960000D01*
X93340000Y-136040000D02*
X93340000Y-137604000D01*
X93380000Y-132349000D02*
X93380000Y-133960000D01*
X93380000Y-136040000D02*
X93380000Y-137651000D01*
X93420000Y-132304000D02*
X93420000Y-133960000D01*
X93420000Y-136040000D02*
X93420000Y-137696000D01*
X93460000Y-132259000D02*
X93460000Y-133960000D01*
X93460000Y-136040000D02*
X93460000Y-137741000D01*
X93500000Y-132216000D02*
X93500000Y-133960000D01*
X93500000Y-136040000D02*
X93500000Y-137784000D01*
X93540000Y-132174000D02*
X93540000Y-133960000D01*
X93540000Y-136040000D02*
X93540000Y-137826000D01*
X93580000Y-132133000D02*
X93580000Y-133960000D01*
X93580000Y-136040000D02*
X93580000Y-137867000D01*
X93620000Y-132094000D02*
X93620000Y-133960000D01*
X93620000Y-136040000D02*
X93620000Y-137906000D01*
X93660000Y-132055000D02*
X93660000Y-133960000D01*
X93660000Y-136040000D02*
X93660000Y-137945000D01*
X93700000Y-132018000D02*
X93700000Y-133960000D01*
X93700000Y-136040000D02*
X93700000Y-137982000D01*
X93740000Y-131981000D02*
X93740000Y-133960000D01*
X93740000Y-136040000D02*
X93740000Y-138019000D01*
X93780000Y-131945000D02*
X93780000Y-133960000D01*
X93780000Y-136040000D02*
X93780000Y-138055000D01*
X93820000Y-131911000D02*
X93820000Y-133960000D01*
X93820000Y-136040000D02*
X93820000Y-138089000D01*
X93860000Y-131877000D02*
X93860000Y-133960000D01*
X93860000Y-136040000D02*
X93860000Y-138123000D01*
X93900000Y-131844000D02*
X93900000Y-133960000D01*
X93900000Y-136040000D02*
X93900000Y-138156000D01*
X93940000Y-131812000D02*
X93940000Y-133960000D01*
X93940000Y-136040000D02*
X93940000Y-138188000D01*
X93980000Y-131781000D02*
X93980000Y-133960000D01*
X93980000Y-136040000D02*
X93980000Y-138219000D01*
X94020000Y-131750000D02*
X94020000Y-133960000D01*
X94020000Y-136040000D02*
X94020000Y-138250000D01*
X94060000Y-131720000D02*
X94060000Y-133960000D01*
X94060000Y-136040000D02*
X94060000Y-138280000D01*
X94100000Y-131691000D02*
X94100000Y-133960000D01*
X94100000Y-136040000D02*
X94100000Y-138309000D01*
X94140000Y-131663000D02*
X94140000Y-133960000D01*
X94140000Y-136040000D02*
X94140000Y-138337000D01*
X94180000Y-131635000D02*
X94180000Y-133960000D01*
X94180000Y-136040000D02*
X94180000Y-138365000D01*
X94220000Y-131608000D02*
X94220000Y-133960000D01*
X94220000Y-136040000D02*
X94220000Y-138392000D01*
X94260000Y-131582000D02*
X94260000Y-133960000D01*
X94260000Y-136040000D02*
X94260000Y-138418000D01*
X94300000Y-131557000D02*
X94300000Y-133960000D01*
X94300000Y-136040000D02*
X94300000Y-138443000D01*
X94340000Y-131532000D02*
X94340000Y-133960000D01*
X94340000Y-136040000D02*
X94340000Y-138468000D01*
X94380000Y-131507000D02*
X94380000Y-133960000D01*
X94380000Y-136040000D02*
X94380000Y-138493000D01*
X94420000Y-131484000D02*
X94420000Y-133960000D01*
X94420000Y-136040000D02*
X94420000Y-138516000D01*
X94460000Y-131461000D02*
X94460000Y-133960000D01*
X94460000Y-136040000D02*
X94460000Y-138539000D01*
X94500000Y-131438000D02*
X94500000Y-133960000D01*
X94500000Y-136040000D02*
X94500000Y-138562000D01*
X94540000Y-131416000D02*
X94540000Y-133960000D01*
X94540000Y-136040000D02*
X94540000Y-138584000D01*
X94580000Y-131395000D02*
X94580000Y-133960000D01*
X94580000Y-136040000D02*
X94580000Y-138605000D01*
X94620000Y-131374000D02*
X94620000Y-133960000D01*
X94620000Y-136040000D02*
X94620000Y-138626000D01*
X94660000Y-131354000D02*
X94660000Y-133960000D01*
X94660000Y-136040000D02*
X94660000Y-138646000D01*
X94700000Y-131334000D02*
X94700000Y-133960000D01*
X94700000Y-136040000D02*
X94700000Y-138666000D01*
X94740000Y-131315000D02*
X94740000Y-133960000D01*
X94740000Y-136040000D02*
X94740000Y-138685000D01*
X94780000Y-131296000D02*
X94780000Y-133960000D01*
X94780000Y-136040000D02*
X94780000Y-138704000D01*
X94820000Y-131278000D02*
X94820000Y-133960000D01*
X94820000Y-136040000D02*
X94820000Y-138722000D01*
X94860000Y-131260000D02*
X94860000Y-133960000D01*
X94860000Y-136040000D02*
X94860000Y-138740000D01*
X94900000Y-131243000D02*
X94900000Y-133960000D01*
X94900000Y-136040000D02*
X94900000Y-138757000D01*
X94940000Y-131227000D02*
X94940000Y-133960000D01*
X94940000Y-136040000D02*
X94940000Y-138773000D01*
X94980000Y-131211000D02*
X94980000Y-133960000D01*
X94980000Y-136040000D02*
X94980000Y-138789000D01*
X95020000Y-131195000D02*
X95020000Y-133960000D01*
X95020000Y-136040000D02*
X95020000Y-138805000D01*
X95060000Y-131180000D02*
X95060000Y-138820000D01*
X95100000Y-131165000D02*
X95100000Y-138835000D01*
X95140000Y-131151000D02*
X95140000Y-138849000D01*
X95180000Y-131137000D02*
X95180000Y-138863000D01*
X95220000Y-131124000D02*
X95220000Y-138876000D01*
X95260000Y-131111000D02*
X95260000Y-138889000D01*
X95300000Y-131099000D02*
X95300000Y-138901000D01*
X95340000Y-131087000D02*
X95340000Y-138913000D01*
X95380000Y-131075000D02*
X95380000Y-138925000D01*
X95420000Y-131064000D02*
X95420000Y-138936000D01*
X95460000Y-131053000D02*
X95460000Y-138947000D01*
X95500000Y-131043000D02*
X95500000Y-138957000D01*
X95540000Y-131033000D02*
X95540000Y-138967000D01*
X95580000Y-131024000D02*
X95580000Y-138976000D01*
X95620000Y-131015000D02*
X95620000Y-138985000D01*
X95660000Y-131007000D02*
X95660000Y-138993000D01*
X95700000Y-130998000D02*
X95700000Y-139002000D01*
X95740000Y-130991000D02*
X95740000Y-139009000D01*
X95780000Y-130983000D02*
X95780000Y-139017000D01*
X95820000Y-130977000D02*
X95820000Y-139023000D01*
X95860000Y-130970000D02*
X95860000Y-139030000D01*
X95900000Y-130964000D02*
X95900000Y-139036000D01*
X95940000Y-130958000D02*
X95940000Y-139042000D01*
X95980000Y-130953000D02*
X95980000Y-139047000D01*
X96020000Y-130948000D02*
X96020000Y-139052000D01*
X96060000Y-130944000D02*
X96060000Y-139056000D01*
X96100000Y-130939000D02*
X96100000Y-139061000D01*
X96140000Y-130936000D02*
X96140000Y-139064000D01*
X96180000Y-130932000D02*
X96180000Y-139068000D01*
X96220000Y-130930000D02*
X96220000Y-139070000D01*
X96260000Y-130927000D02*
X96260000Y-139073000D01*
X96300000Y-130925000D02*
X96300000Y-139075000D01*
X96340000Y-130923000D02*
X96340000Y-139077000D01*
X96380000Y-130922000D02*
X96380000Y-139078000D01*
X96420000Y-130921000D02*
X96420000Y-139079000D01*
X96460000Y-130920000D02*
X96460000Y-139080000D01*
X96500000Y-130920000D02*
X96500000Y-139080000D01*
X100509698Y-132285000D02*
X100509698Y-133085000D01*
X100909698Y-132685000D02*
X100109698Y-132685000D01*
X100620000Y-135000000D02*
G75*
G02*
X92380000Y-135000000I-4120000J0D01*
G01*
X92380000Y-135000000D02*
G75*
G02*
X100620000Y-135000000I4120000J0D01*
G01*
%TD*%
M02*
