%TF.GenerationSoftware,KiCad,Pcbnew,9.0.2*%
%TF.CreationDate,2025-06-05T20:51:45-04:00*%
%TF.ProjectId,solder-2nd-attempt,736f6c64-6572-42d3-926e-642d61747465,rev?*%
%TF.SameCoordinates,Original*%
%TF.FileFunction,Copper,L2,Bot*%
%TF.FilePolarity,Positive*%
%FSLAX46Y46*%
G04 Gerber Fmt 4.6, Leading zero omitted, Abs format (unit mm)*
G04 Created by KiCad (PCBNEW 9.0.2) date 2025-06-05 20:51:45*
%MOMM*%
%LPD*%
G01*
G04 APERTURE LIST*
G04 Aperture macros list*
%AMRoundRect*
0 Rectangle with rounded corners*
0 $1 Rounding radius*
0 $2 $3 $4 $5 $6 $7 $8 $9 X,Y pos of 4 corners*
0 Add a 4 corners polygon primitive as box body*
4,1,4,$2,$3,$4,$5,$6,$7,$8,$9,$2,$3,0*
0 Add four circle primitives for the rounded corners*
1,1,$1+$1,$2,$3*
1,1,$1+$1,$4,$5*
1,1,$1+$1,$6,$7*
1,1,$1+$1,$8,$9*
0 Add four rect primitives between the rounded corners*
20,1,$1+$1,$2,$3,$4,$5,0*
20,1,$1+$1,$4,$5,$6,$7,0*
20,1,$1+$1,$6,$7,$8,$9,0*
20,1,$1+$1,$8,$9,$2,$3,0*%
%AMRotRect*
0 Rectangle, with rotation*
0 The origin of the aperture is its center*
0 $1 length*
0 $2 width*
0 $3 Rotation angle, in degrees counterclockwise*
0 Add horizontal line*
21,1,$1,$2,0,0,$3*%
G04 Aperture macros list end*
%TA.AperFunction,ComponentPad*%
%ADD10C,1.600000*%
%TD*%
%TA.AperFunction,ComponentPad*%
%ADD11R,1.800000X1.800000*%
%TD*%
%TA.AperFunction,ComponentPad*%
%ADD12C,1.800000*%
%TD*%
%TA.AperFunction,ComponentPad*%
%ADD13C,1.500000*%
%TD*%
%TA.AperFunction,ComponentPad*%
%ADD14C,2.000000*%
%TD*%
%TA.AperFunction,ComponentPad*%
%ADD15RoundRect,0.250000X0.201314X0.751314X-0.751314X0.201314X-0.201314X-0.751314X0.751314X-0.201314X0*%
%TD*%
%TA.AperFunction,ComponentPad*%
%ADD16R,1.100000X1.800000*%
%TD*%
%TA.AperFunction,ComponentPad*%
%ADD17RoundRect,0.275000X0.275000X0.625000X-0.275000X0.625000X-0.275000X-0.625000X0.275000X-0.625000X0*%
%TD*%
%TA.AperFunction,SMDPad,CuDef*%
%ADD18R,1.270000X5.080000*%
%TD*%
%TA.AperFunction,SMDPad,CuDef*%
%ADD19C,17.800000*%
%TD*%
%TA.AperFunction,ComponentPad*%
%ADD20RotRect,1.100000X1.800000X165.000000*%
%TD*%
%TA.AperFunction,ComponentPad*%
%ADD21RoundRect,0.275000X0.427392X0.532528X-0.103868X0.674879X-0.427392X-0.532528X0.103868X-0.674879X0*%
%TD*%
%TA.AperFunction,ComponentPad*%
%ADD22C,1.440000*%
%TD*%
%TA.AperFunction,ComponentPad*%
%ADD23RoundRect,0.250000X0.550000X0.550000X-0.550000X0.550000X-0.550000X-0.550000X0.550000X-0.550000X0*%
%TD*%
%TA.AperFunction,ViaPad*%
%ADD24C,10.000000*%
%TD*%
%TA.AperFunction,ViaPad*%
%ADD25C,0.600000*%
%TD*%
%TA.AperFunction,Conductor*%
%ADD26C,0.200000*%
%TD*%
G04 APERTURE END LIST*
D10*
%TO.P,R2,1*%
%TO.N,Net-(Q1-E)*%
X109979700Y-159891100D03*
%TO.P,R2,2*%
%TO.N,Net-(D1-A)*%
X102619345Y-157918899D03*
%TD*%
%TO.P,R7,1*%
%TO.N,Net-(Q2-B)*%
X88500000Y-180299600D03*
%TO.P,R7,2*%
%TO.N,Net-(C2-Pad1)*%
X84690000Y-173700486D03*
%TD*%
D11*
%TO.P,D1,1,K*%
%TO.N,GND*%
X53460000Y-137191200D03*
D12*
%TO.P,D1,2,A*%
%TO.N,Net-(D1-A)*%
X56000000Y-137191200D03*
%TD*%
D13*
%TO.P,R3,1*%
%TO.N,Net-(Q1-B)*%
X80000000Y-137000000D03*
%TO.P,R3,2*%
%TO.N,GND*%
X83400000Y-137000000D03*
%TD*%
D10*
%TO.P,R1,1*%
%TO.N,Net-(Q1-E)*%
X111979700Y-156391100D03*
%TO.P,R1,2*%
%TO.N,Net-(D2-A)*%
X104619345Y-154418899D03*
%TD*%
%TO.P,R5,1*%
%TO.N,Net-(BT1-+)*%
X95905000Y-176099100D03*
%TO.P,R5,2*%
%TO.N,Net-(Q2-B)*%
X92095000Y-169499986D03*
%TD*%
D11*
%TO.P,D2,1,K*%
%TO.N,GND*%
X65000000Y-126000000D03*
D12*
%TO.P,D2,2,A*%
%TO.N,Net-(D2-A)*%
X67540000Y-126000000D03*
%TD*%
D10*
%TO.P,R4,1*%
%TO.N,Net-(BT1-+)*%
X100500000Y-161000000D03*
%TO.P,R4,2*%
%TO.N,Net-(Q2-C)*%
X107099114Y-164810000D03*
%TD*%
%TO.P,R6,1*%
%TO.N,Net-(Q3-B)*%
X92000000Y-178099100D03*
%TO.P,R6,2*%
%TO.N,Net-(Q2-C)*%
X88190000Y-171499986D03*
%TD*%
%TO.P,R8,1*%
%TO.N,Net-(Q3-B)*%
X84405000Y-182299600D03*
%TO.P,R8,2*%
%TO.N,GND*%
X80595000Y-175700486D03*
%TD*%
D14*
%TO.P,SW1,1,1*%
%TO.N,Net-(C2-Pad1)*%
X92439600Y-119323600D03*
X86810435Y-122573600D03*
%TO.P,SW1,2,2*%
%TO.N,Net-(Q3-B)*%
X90189600Y-115426486D03*
X84560434Y-118676486D03*
%TD*%
D15*
%TO.P,C1,1*%
%TO.N,Net-(Q1-B)*%
X65165100Y-160820600D03*
D10*
%TO.P,C1,2*%
%TO.N,GND*%
X60834973Y-163320600D03*
%TD*%
D16*
%TO.P,Q1,1,C*%
%TO.N,Net-(Q1-B)*%
X59540000Y-154900000D03*
D17*
%TO.P,Q1,2,B*%
X58270000Y-152830000D03*
%TO.P,Q1,3,E*%
%TO.N,Net-(Q1-E)*%
X57000000Y-154900000D03*
%TD*%
D16*
%TO.P,Q3,1,C*%
%TO.N,Net-(Q2-B)*%
X52040000Y-155900000D03*
D17*
%TO.P,Q3,2,B*%
%TO.N,Net-(Q3-B)*%
X50770000Y-153830000D03*
%TO.P,Q3,3,E*%
%TO.N,GND*%
X49500000Y-155900000D03*
%TD*%
D18*
%TO.P,BT1,1,+*%
%TO.N,Net-(BT1-+)*%
X62470000Y-120500000D03*
X40500000Y-120500000D03*
D19*
%TO.P,BT1,2,-*%
%TO.N,GND*%
X51485000Y-120500000D03*
%TD*%
D20*
%TO.P,Q2,1,C*%
%TO.N,Net-(Q2-C)*%
X56849972Y-161043770D03*
D21*
%TO.P,Q2,2,B*%
%TO.N,Net-(Q2-B)*%
X56159002Y-158715604D03*
%TO.P,Q2,3,E*%
%TO.N,GND*%
X54396520Y-160386370D03*
%TD*%
D22*
%TO.P,RV1,1,1*%
%TO.N,Net-(Q1-B)*%
X93500000Y-153000000D03*
%TO.P,RV1,2,2*%
%TO.N,Net-(Q2-C)*%
X90960000Y-150460000D03*
%TO.P,RV1,3,3*%
%TO.N,unconnected-(RV1-Pad3)*%
X93500000Y-147920000D03*
%TD*%
D23*
%TO.P,C2,1*%
%TO.N,Net-(C2-Pad1)*%
X99000000Y-135000000D03*
D10*
%TO.P,C2,2*%
%TO.N,GND*%
X94000000Y-135000000D03*
%TD*%
D24*
%TO.N,*%
X40500000Y-100000000D03*
D25*
%TO.N,Net-(BT1-+)*%
X62359900Y-124581900D03*
X41654500Y-121654500D03*
X68354100Y-160188200D03*
%TO.N,Net-(Q1-B)*%
X77345400Y-153230000D03*
%TO.N,Net-(D2-A)*%
X71351200Y-153855900D03*
%TO.N,Net-(Q3-B)*%
X84560400Y-157237300D03*
%TD*%
D26*
%TO.N,Net-(Q1-B)*%
X59794400Y-153230000D02*
X61032200Y-154467800D01*
X59540000Y-154500000D02*
X61000000Y-154500000D01*
X61000000Y-154500000D02*
X61032200Y-154467800D01*
%TO.N,Net-(BT1-+)*%
X40500000Y-120500000D02*
X40500000Y-123341700D01*
X62470000Y-120500000D02*
X62470000Y-123341700D01*
X41654500Y-123006800D02*
X41319600Y-123341700D01*
X62359900Y-154194000D02*
X62359900Y-124581900D01*
X68354100Y-160188200D02*
X62359900Y-154194000D01*
X95905000Y-176099100D02*
X100500000Y-171504100D01*
X62359900Y-123451800D02*
X62359900Y-124581900D01*
X41654500Y-121654500D02*
X41654500Y-123006800D01*
X100500000Y-171504100D02*
X100500000Y-161000000D01*
X41319600Y-123341700D02*
X40500000Y-123341700D01*
X62470000Y-123341700D02*
X62359900Y-123451800D01*
%TO.N,GND*%
X80595000Y-139805000D02*
X83400000Y-137000000D01*
X51485000Y-134014500D02*
X53460000Y-135989500D01*
X80595000Y-175700500D02*
X80595000Y-139805000D01*
X53460000Y-136887800D02*
X53460000Y-137191200D01*
X51485000Y-120500000D02*
X51485000Y-134014500D01*
X53460000Y-137191200D02*
X53460000Y-158960000D01*
X53460000Y-158960000D02*
X54500000Y-160000000D01*
X53460000Y-136887800D02*
X53460000Y-135989500D01*
%TO.N,Net-(Q1-B)*%
X80000000Y-137000000D02*
X77345400Y-139654600D01*
X77345400Y-139654600D02*
X77345400Y-153230000D01*
X65165100Y-158600700D02*
X65165100Y-160820600D01*
X58270000Y-153230000D02*
X59794400Y-153230000D01*
X61032200Y-154467800D02*
X65165100Y-158600700D01*
%TO.N,Net-(C2-Pad1)*%
X84690000Y-164791800D02*
X84690000Y-173700500D01*
X99000000Y-135000000D02*
X87789800Y-146210200D01*
X87789800Y-146210200D02*
X87789800Y-161692000D01*
X92439600Y-119323600D02*
X92439600Y-128439600D01*
X99000000Y-135000000D02*
X92439600Y-128439600D01*
X87789800Y-161692000D02*
X84690000Y-164791800D01*
%TO.N,Net-(D2-A)*%
X67540000Y-150044700D02*
X67540000Y-126000000D01*
X71351200Y-153855900D02*
X67540000Y-150044700D01*
%TO.N,Net-(Q1-E)*%
X109979700Y-158391100D02*
X109979700Y-159891100D01*
X111979700Y-156391100D02*
X109979700Y-158391100D01*
%TO.N,Net-(Q2-C)*%
X88191500Y-162058300D02*
X88191500Y-153228500D01*
X88190000Y-162059800D02*
X88191500Y-162058300D01*
X88191500Y-153228500D02*
X90960000Y-150460000D01*
X88190000Y-171500000D02*
X88190000Y-162059800D01*
%TO.N,Net-(Q2-B)*%
X92095000Y-169500000D02*
X88500000Y-173095000D01*
X88500000Y-173095000D02*
X88500000Y-180299600D01*
%TO.N,Net-(Q3-B)*%
X84560400Y-157237300D02*
X83560300Y-158237400D01*
X83560300Y-181454900D02*
X84405000Y-182299600D01*
X83560300Y-158237400D02*
X83560300Y-181454900D01*
X84560400Y-118676500D02*
X84560400Y-157237300D01*
%TD*%
M02*
