M48
; DRILL file {KiCad 9.0.2} date 2025-06-05T20:52:22-0400
; FORMAT={-:-/ absolute / metric / decimal}
; #@! TF.CreationDate,2025-06-05T20:52:22-04:00
; #@! TF.GenerationSoftware,Kicad,Pcbnew,9.0.2
; #@! TF.FileFunction,Plated,1,2,PTH
FMAT,2
METRIC
; #@! TA.AperFunction,Plated,PTH,ViaDrill
T1C0.300
; #@! TA.AperFunction,Plated,PTH,ComponentDrill
T2C0.750
; #@! TA.AperFunction,Plated,PTH,ComponentDrill
T3C0.800
; #@! TA.AperFunction,Plated,PTH,ComponentDrill
T4C0.900
; #@! TA.AperFunction,Plated,PTH,ComponentDrill
T5C1.100
; #@! TA.AperFunction,Plated,PTH,ViaDrill
T6C9.000
%
G90
G05
T1
X41.654Y-121.654
X62.36Y-124.582
X68.354Y-160.188
X71.351Y-153.856
X77.345Y-153.23
X84.56Y-157.237
T2
X49.5Y-155.5
X50.77Y-154.23
X52.04Y-155.5
X54.5Y-160.0
X56.055Y-159.102
X56.953Y-160.657
X57.0Y-154.5
X58.27Y-153.23
X59.54Y-154.5
T3
X60.835Y-163.321
X65.165Y-160.821
X80.0Y-137.0
X80.595Y-175.7
X83.4Y-137.0
X84.405Y-182.3
X84.69Y-173.7
X88.19Y-171.5
X88.5Y-180.3
X90.96Y-150.46
X92.0Y-178.099
X92.095Y-169.5
X93.5Y-147.92
X93.5Y-153.0
X94.0Y-135.0
X95.905Y-176.099
X99.0Y-135.0
X100.5Y-161.0
X102.619Y-157.919
X104.619Y-154.419
X107.099Y-164.81
X109.98Y-159.891
X111.98Y-156.391
T4
X53.46Y-137.191
X56.0Y-137.191
X65.0Y-126.0
X67.54Y-126.0
T5
X84.56Y-118.676
X86.81Y-122.574
X90.19Y-115.426
X92.44Y-119.324
T6
X40.5Y-100.0
M30
